<?xml version="1.0" encoding="UTF-8"?>
<!DOCTYPE svg PUBLIC "-//W3C//DTD SVG 1.1//EN" "http://www.w3.org/Graphics/SVG/1.1/DTD/svg11.dtd">
<svg xmlns="http://www.w3.org/2000/svg" version="1.1" width="681px" height="155px" style="shape-rendering:geometricPrecision; text-rendering:geometricPrecision; image-rendering:optimizeQuality; fill-rule:evenodd; clip-rule:evenodd" xmlns:xlink="http://www.w3.org/1999/xlink">
<g><path style="opacity:1" fill="#f9f9f9" d="M 140.5,-0.5 C 148.5,-0.5 156.5,-0.5 164.5,-0.5C 164.644,5.98404 164.644,12.3174 164.5,18.5C 161.5,18.5 158.5,18.5 155.5,18.5C 155.5,20.1667 155.5,21.8333 155.5,23.5C 154.317,22.4955 152.984,21.6622 151.5,21C 154.167,20.3333 154.167,19.6667 151.5,19C 147.848,18.5014 144.182,18.3347 140.5,18.5C 140.5,12.1667 140.5,5.83333 140.5,-0.5 Z"/></g>
<g><path style="opacity:1" fill="#efefef" d="M 314.5,-0.5 C 330.5,-0.5 346.5,-0.5 362.5,-0.5C 362.97,5.3889 363.303,11.2222 363.5,17C 361.292,17.1909 359.292,17.6909 357.5,18.5C 348.809,21.1748 344.475,27.1748 344.5,36.5C 344.55,39.9763 345.217,43.3096 346.5,46.5C 345.288,45.7701 344.288,44.7701 343.5,43.5C 341.997,44.0522 340.331,44.0522 338.5,43.5C 338.419,35.6529 338.419,27.9862 338.5,20.5C 331.747,20.1125 325.247,19.1125 319,17.5C 319.21,21.2021 318.71,24.8688 317.5,28.5C 317.5,25.1667 317.5,21.8333 317.5,18.5C 314.167,18.5 310.833,18.5 307.5,18.5C 310.028,17.8343 312.694,17.1676 315.5,16.5C 314.546,10.8955 314.212,5.22887 314.5,-0.5 Z"/></g>
<g><path style="opacity:1" fill="#f1f1f1" d="M 388.5,-0.5 C 412.833,-0.5 437.167,-0.5 461.5,-0.5C 461.752,5.7384 461.752,12.0717 461.5,18.5C 459.533,18.7394 457.699,18.4061 456,17.5C 455.667,18.1667 455.333,18.8333 455,19.5C 454.581,18.3279 453.915,17.3279 453,16.5C 450.379,17.9915 447.545,18.6582 444.5,18.5C 438.167,18.5 431.833,18.5 425.5,18.5C 425.5,40.5 425.5,62.5 425.5,84.5C 428.833,84.5 432.167,84.5 435.5,84.5C 435.5,75.1667 435.5,65.8333 435.5,56.5C 437.467,56.2606 439.301,56.5939 441,57.5C 443.353,66.5811 445.853,75.5811 448.5,84.5C 452.365,85.2243 456.365,85.8909 460.5,86.5C 461.086,86.2907 461.586,85.9574 462,85.5C 462.236,87.2998 461.736,88.9665 460.5,90.5C 459.914,90.2907 459.414,89.9574 459,89.5C 451.963,91.0549 444.796,91.7216 437.5,91.5C 437.65,99.3326 437.65,107.333 437.5,115.5C 445.109,115.856 452.775,116.023 460.5,116C 462.046,119.65 462.713,123.484 462.5,127.5C 461.504,127.414 460.671,127.748 460,128.5C 459.667,127.833 459.333,127.167 459,126.5C 457.647,127.704 455.981,128.371 454,128.5C 432.525,128.288 411.025,128.288 389.5,128.5C 388.86,124.218 389.194,119.885 390.5,115.5C 396.414,115.719 402.581,116.052 409,116.5C 410.261,116.241 411.261,115.574 412,114.5C 412.798,106.754 412.631,99.0873 411.5,91.5C 412.484,75.5775 412.817,59.5775 412.5,43.5C 411.167,43.5 409.833,43.5 408.5,43.5C 409.568,42.5655 410.901,42.2322 412.5,42.5C 412.5,34.8333 412.5,27.1667 412.5,19.5C 407.041,19.1033 401.708,19.6033 396.5,21C 403.118,21.82 403.118,22.32 396.5,22.5C 392.563,22.8944 390.063,21.2278 389,17.5C 388.501,11.5092 388.334,5.50924 388.5,-0.5 Z"/></g>
<g><path style="opacity:1" fill="#ececec" d="M 461.5,-0.5 C 478.5,-0.5 495.5,-0.5 512.5,-0.5C 512.446,5.74364 512.78,11.7436 513.5,17.5C 521.323,18.1667 528.99,18.8334 536.5,19.5C 528.5,19.5 520.5,19.5 512.5,19.5C 512.423,23.8766 511.923,28.2099 511,32.5C 509.575,33.2123 508.075,33.379 506.5,33C 506.957,33.414 507.291,33.914 507.5,34.5C 510.306,35.1676 512.972,35.8343 515.5,36.5C 511.566,36.0211 507.899,36.6878 504.5,38.5C 498.302,35.3733 492.635,36.0399 487.5,40.5C 486.833,33.9881 486.167,27.3214 485.5,20.5C 483.339,19.9649 481.339,19.1316 479.5,18C 480.28,14.9871 479.614,12.1537 477.5,9.5C 476.833,10.5 476.167,11.5 475.5,12.5C 472.492,13.0181 470.159,14.5181 468.5,17C 471.365,17.1829 474.031,17.6829 476.5,18.5C 473.167,18.5 469.833,18.5 466.5,18.5C 466.5,19.5 466.5,20.5 466.5,21.5C 465.5,21.5 464.5,21.5 463.5,21.5C 464,25.1638 462.833,28.1638 460,30.5C 459.221,27.9028 458.721,27.9028 458.5,30.5C 455.99,23.9905 451.323,19.9905 444.5,18.5C 447.545,18.6582 450.379,17.9915 453,16.5C 453.915,17.3279 454.581,18.3279 455,19.5C 455.333,18.8333 455.667,18.1667 456,17.5C 457.699,18.4061 459.533,18.7394 461.5,18.5C 461.752,12.0717 461.752,5.7384 461.5,-0.5 Z"/></g>
<g><path style="opacity:1" fill="#ededed" d="M 512.5,-0.5 C 537.167,-0.5 561.833,-0.5 586.5,-0.5C 586.5,5.83333 586.5,12.1667 586.5,18.5C 584.473,18.6621 582.473,18.4955 580.5,18C 579.206,15.913 578.039,13.7463 577,11.5C 573.185,8.63048 569.685,8.96382 566.5,12.5C 565.914,12.2907 565.414,11.9574 565,11.5C 564.505,13.4727 564.338,15.4727 564.5,17.5C 568.042,17.1872 571.375,17.5206 574.5,18.5C 571.167,18.5 567.833,18.5 564.5,18.5C 564.5,21.8333 564.5,25.1667 564.5,28.5C 567.833,28.5 571.167,28.5 574.5,28.5C 571.359,29.3213 568.025,29.8213 564.5,30C 563.809,31.0674 563.309,32.2341 563,33.5C 562.667,32.5 562.333,31.5 562,30.5C 561.879,32.7271 561.046,34.5604 559.5,36C 560.5,36.3333 561.5,36.6667 562.5,37C 561.887,39.1474 561.221,41.314 560.5,43.5C 559.935,41.4904 558.935,39.8237 557.5,38.5C 556.832,41.3056 556.166,43.9723 555.5,46.5C 555.784,43.2234 555.451,40.0567 554.5,37C 551.5,36.3333 548.5,36.3333 545.5,37C 544.874,37.7504 544.374,38.5838 544,39.5C 542.568,37.5612 540.735,36.2279 538.5,35.5C 537.391,34.71 536.058,34.21 534.5,34C 535.672,33.5814 536.672,32.9147 537.5,32C 536.536,27.9341 536.203,23.7675 536.5,19.5C 528.99,18.8334 521.323,18.1667 513.5,17.5C 512.78,11.7436 512.446,5.74364 512.5,-0.5 Z"/></g>
<g><path style="opacity:1" fill="#f8f8f8" d="M 592.5,36.5 C 589.833,36.5 587.167,36.5 584.5,36.5C 584.5,37.5 584.5,38.5 584.5,39.5C 583.67,48.6577 583.17,57.991 583,67.5C 580.848,65.6763 578.348,65.343 575.5,66.5C 575.666,56.8276 575.5,47.1609 575,37.5C 571.606,36.5442 568.106,36.2108 564.5,36.5C 564.5,38.1667 564.5,39.8333 564.5,41.5C 563.833,55.6723 563.167,70.0057 562.5,84.5C 561.808,85.0253 561.308,85.6919 561,86.5C 559.334,85.6598 559.167,86.1598 560.5,88C 559,88.8333 557.833,90 557,91.5C 557.056,87.5099 556.556,83.5099 555.5,79.5C 555.5,68.5 555.5,57.5 555.5,46.5C 556.166,43.9723 556.832,41.3056 557.5,38.5C 558.935,39.8237 559.935,41.4904 560.5,43.5C 561.221,41.314 561.887,39.1474 562.5,37C 561.5,36.6667 560.5,36.3333 559.5,36C 561.046,34.5604 561.879,32.7271 562,30.5C 562.333,31.5 562.667,32.5 563,33.5C 563.309,32.2341 563.809,31.0674 564.5,30C 568.025,29.8213 571.359,29.3213 574.5,28.5C 575.479,25.3752 575.813,22.0419 575.5,18.5C 576.15,18.1961 576.817,17.8627 577.5,17.5C 580.149,18.9722 582.982,19.9722 586,20.5C 586.296,23.7058 586.796,26.8725 587.5,30C 585.838,31.9398 586.171,32.6065 588.5,32C 589.047,31.0754 589.713,30.2421 590.5,29.5C 590.177,31.9259 590.843,34.2592 592.5,36.5 Z"/></g>
<g><path style="opacity:1" fill="#ededed" d="M 164.5,-0.5 C 189.5,-0.5 214.5,-0.5 239.5,-0.5C 239.5,5.83333 239.5,12.1667 239.5,18.5C 247.507,18.6664 255.507,18.4997 263.5,18C 264.371,12.1971 264.704,6.03044 264.5,-0.5C 272.833,-0.5 281.167,-0.5 289.5,-0.5C 289.193,5.09345 289.527,10.5934 290.5,16C 287.456,16.3589 287.122,17.0255 289.5,18C 288.944,18.3826 288.611,18.8826 288.5,19.5C 281.202,18.4409 273.869,18.2743 266.5,19C 265.518,26.747 265.185,34.5803 265.5,42.5C 256.699,44.957 247.866,44.957 239,42.5C 238.885,56.4571 238.385,70.4571 237.5,84.5C 237.667,71.1625 237.5,57.8292 237,44.5C 235.307,41.2283 232.807,38.7283 229.5,37C 224.833,36.3333 220.167,36.3333 215.5,37C 212.254,38.7424 209.921,41.2424 208.5,44.5C 205.689,43.525 202.689,42.8583 199.5,42.5C 199.5,34.5 199.5,26.5 199.5,18.5C 195.563,18.2065 191.73,18.5399 188,19.5C 184.526,30.9219 180.859,42.2552 177,53.5C 173.235,42.0367 169.402,30.7034 165.5,19.5C 165.5,18.8333 165.167,18.5 164.5,18.5C 164.644,12.3174 164.644,5.98404 164.5,-0.5 Z"/></g>
<g><path style="opacity:1" fill="#f9f9f9" d="M 239.5,-0.5 C 247.833,-0.5 256.167,-0.5 264.5,-0.5C 264.704,6.03044 264.371,12.1971 263.5,18C 255.507,18.4997 247.507,18.6664 239.5,18.5C 239.5,12.1667 239.5,5.83333 239.5,-0.5 Z"/></g>
<g><path style="opacity:1" fill="#ebebeb" d="M 362.5,-0.5 C 371.167,-0.5 379.833,-0.5 388.5,-0.5C 388.334,5.50924 388.501,11.5092 389,17.5C 390.063,21.2278 392.563,22.8944 396.5,22.5C 403.118,22.32 403.118,21.82 396.5,21C 401.708,19.6033 407.041,19.1033 412.5,19.5C 412.5,27.1667 412.5,34.8333 412.5,42.5C 410.901,42.2322 409.568,42.5655 408.5,43.5C 402.031,41.8513 395.697,42.1846 389.5,44.5C 388.336,51.4763 388.169,58.4763 389,65.5C 390.406,66.6682 391.572,66.3348 392.5,64.5C 393.308,64.8076 393.975,65.3076 394.5,66C 400.196,66.1701 405.862,66.6701 411.5,67.5C 401.483,69.1792 391.483,69.3459 381.5,68C 380.033,66.9025 379.199,65.4025 379,63.5C 378.809,65.7078 378.309,67.7078 377.5,69.5C 379.004,61.8131 377.004,55.3131 371.5,50C 365.879,47.9117 360.713,45.0783 356,41.5C 355.333,38.1667 355.333,34.8333 356,31.5C 363.882,26.6985 367.715,29.0319 367.5,38.5C 370.777,38.7839 373.943,38.4505 377,37.5C 378.011,23.679 371.511,17.3456 357.5,18.5C 359.292,17.6909 361.292,17.1909 363.5,17C 363.303,11.2222 362.97,5.3889 362.5,-0.5 Z"/></g>
<g><path style="opacity:1" fill="#edeeee" d="M -0.5,-0.5 C 30.5,-0.5 61.5,-0.5 92.5,-0.5C 91.7478,5.85456 91.4145,12.0212 91.5,18C 83.2363,19.3699 74.903,19.8699 66.5,19.5C 66.6414,25.6359 66.3081,31.4692 65.5,37C 65.7609,40.7004 67.5942,43.2004 71,44.5C 73.6001,43.9165 76.4334,43.2498 79.5,42.5C 69.5,55.8333 59.5,69.1667 49.5,82.5C 39.5,95.1667 29.5,107.833 19.5,120.5C 19.4914,118.692 19.9914,117.025 21,115.5C 23.9945,112.18 26.4945,108.513 28.5,104.5C 27.0663,103.77 25.8996,102.77 25,101.5C 24.6667,101.833 24.3333,102.167 24,102.5C 23.5635,99.2277 21.7301,97.561 18.5,97.5C 17.9232,100.55 19.0899,102.55 22,103.5C 22.9694,106.328 22.3028,108.662 20,110.5C 19.2917,109.619 18.4584,108.953 17.5,108.5C 17.5,103.167 17.5,97.8333 17.5,92.5C 22.1785,92.3342 26.8452,92.5008 31.5,93C 31.0338,94.2988 31.0338,95.7988 31.5,97.5C 33.9032,97.607 35.7365,96.607 37,94.5C 41.4018,89.932 45.2352,84.932 48.5,79.5C 49.6309,77.9255 49.7975,76.2588 49,74.5C 48.0805,74.0698 47.2472,73.7365 46.5,73.5C 47.4269,71.5095 47.5936,69.5095 47,67.5C 48.6804,66.3966 50.1804,66.7299 51.5,68.5C 53.7954,67.5682 56.1287,66.7348 58.5,66C 59.3758,63.6243 61.0425,62.1243 63.5,61.5C 65.2614,59.4355 65.5947,57.2689 64.5,55C 65.8333,54.3333 66.8333,53.3333 67.5,52C 66.2186,49.5725 65.2186,47.0725 64.5,44.5C 58.9589,44.5063 53.6256,44.1729 48.5,43.5C 43.9182,43.5813 41.4182,45.9146 41,50.5C 39.8118,49.4366 39.3118,48.1033 39.5,46.5C 35.2929,46.6626 31.1263,46.3293 27,45.5C 26.1667,45.8333 25.3333,46.1667 24.5,46.5C 27.7683,47.487 31.1016,47.8204 34.5,47.5C 32.3626,54.3152 34.1959,59.6485 40,63.5C 40.49,64.7932 40.6567,66.1266 40.5,67.5C 33.1507,67.4512 25.8174,67.1178 18.5,66.5C 17.3025,59.1009 16.4691,51.7676 16,44.5C 10.5298,44.1163 5.02979,43.783 -0.5,43.5C -0.5,28.8333 -0.5,14.1667 -0.5,-0.5 Z"/></g>
<g><path style="opacity:1" fill="#f9f9f9" d="M 17.5,19.5 C 25.5,19.5 33.5,19.5 41.5,19.5C 41.4323,27.2103 41.4323,34.7103 41.5,42C 38.0155,43.1323 34.3489,43.6323 30.5,43.5C 26.3232,43.0822 22.3232,43.0822 18.5,43.5C 17.6551,35.3596 17.3217,27.3596 17.5,19.5 Z"/></g>
<g><path style="opacity:1" fill="#f4f5f5" d="M 92.5,-0.5 C 100.5,-0.5 108.5,-0.5 116.5,-0.5C 116.5,5.83333 116.5,12.1667 116.5,18.5C 124.158,19.0669 131.824,19.7335 139.5,20.5C 140.552,27.8007 140.552,35.134 139.5,42.5C 132.079,42.3961 124.745,43.0628 117.5,44.5C 116.723,51.5065 116.056,58.5065 115.5,65.5C 110.851,66.065 106.184,66.565 101.5,67C 100.146,68.2937 98.8123,68.4604 97.5,67.5C 96.4173,68.365 96.2506,69.365 97,70.5C 98.2975,69.2164 99.4642,69.3831 100.5,71C 97.0586,72.3184 95.7253,74.8184 96.5,78.5C 98.7812,78.0773 100.448,78.744 101.5,80.5C 99.5,81.1667 97.5,81.8333 95.5,82.5C 95.6666,66.1633 95.4999,49.8299 95,33.5C 93.087,31.8131 90.9203,31.3131 88.5,32C 85.5377,34.7815 83.2044,37.9482 81.5,41.5C 80.8333,41.8333 80.1667,42.1667 79.5,42.5C 76.4334,43.2498 73.6001,43.9165 71,44.5C 67.5942,43.2004 65.7609,40.7004 65.5,37C 66.3081,31.4692 66.6414,25.6359 66.5,19.5C 74.903,19.8699 83.2363,19.3699 91.5,18C 91.4145,12.0212 91.7478,5.85456 92.5,-0.5 Z"/></g>
<g><path style="opacity:1" fill="#101010" d="M 476.5,18.5 C 477.479,21.6248 477.813,24.9581 477.5,28.5C 474.15,28.665 470.817,28.4983 467.5,28C 466.577,25.9592 466.244,23.7925 466.5,21.5C 466.5,20.5 466.5,19.5 466.5,18.5C 469.833,18.5 473.167,18.5 476.5,18.5 Z"/></g>
<g><path style="opacity:1" fill="#eeeeee" d="M 660.5,-0.5 C 667.167,-0.5 673.833,-0.5 680.5,-0.5C 680.5,15.5 680.5,31.5 680.5,47.5C 679.778,47.9175 679.278,48.5842 679,49.5C 677.471,48.2713 676.304,46.7713 675.5,45C 671.11,44.2278 666.777,44.3945 662.5,45.5C 660.49,43.8287 658.157,43.162 655.5,43.5C 654.948,41.6693 654.948,40.0026 655.5,38.5C 655.081,37.3279 654.415,36.3279 653.5,35.5C 652.893,35.6236 652.56,35.9569 652.5,36.5C 649.167,36.5 645.833,36.5 642.5,36.5C 642.657,37.8734 642.49,39.2068 642,40.5C 640.594,38.2563 638.761,36.5897 636.5,35.5C 636.938,35.5654 637.272,35.3988 637.5,35C 635.586,30.1418 634.919,24.9752 635.5,19.5C 643.653,18.6191 651.653,18.1191 659.5,18C 660.476,11.9242 660.81,5.75757 660.5,-0.5 Z"/></g>
<g><path style="opacity:1" fill="#f5f5f5" d="M 487.5,40.5 C 484.879,53.8073 484.879,67.1407 487.5,80.5C 486.5,80.5 485.5,80.5 484.5,80.5C 484.649,79.448 484.483,78.448 484,77.5C 483.503,79.8098 483.337,82.1432 483.5,84.5C 481.799,84.9662 480.299,84.9662 479,84.5C 478.831,69.3277 478.331,54.3277 477.5,39.5C 477.5,38.8333 477.5,38.1667 477.5,37.5C 474.038,36.5184 470.371,36.185 466.5,36.5C 466.17,52.6754 466.504,68.6754 467.5,84.5C 470.641,85.3213 473.975,85.8213 477.5,86C 475.624,87.3754 473.624,88.542 471.5,89.5C 475.035,90.7718 478.535,92.1052 482,93.5C 483.666,92.6598 483.833,93.1598 482.5,95C 484.807,95.3542 485.141,96.3542 483.5,98C 484.686,100.756 486.019,103.422 487.5,106C 486.773,108.124 486.106,110.291 485.5,112.5C 485.709,113.086 486.043,113.586 486.5,114C 478.812,114.831 471.145,114.665 463.5,113.5C 463.207,106.639 462.873,99.8054 462.5,93C 465.075,90.8597 467.742,89.6931 470.5,89.5C 469.066,88.7702 467.9,87.7702 467,86.5C 466.465,88.2705 465.631,88.6039 464.5,87.5C 463.787,85.2241 463.287,82.8907 463,80.5C 461.887,81.7604 461.72,82.927 462.5,84C 461.212,84.2387 460.212,83.7387 459.5,82.5C 456.794,73.4172 453.794,64.4172 450.5,55.5C 454.378,52.4363 456.878,48.4363 458,43.5C 458.499,39.1794 458.666,34.8461 458.5,30.5C 458.721,27.9028 459.221,27.9028 460,30.5C 462.833,28.1638 464,25.1638 463.5,21.5C 464.5,21.5 465.5,21.5 466.5,21.5C 466.244,23.7925 466.577,25.9592 467.5,28C 470.817,28.4983 474.15,28.665 477.5,28.5C 477.813,24.9581 477.479,21.6248 476.5,18.5C 474.031,17.6829 471.365,17.1829 468.5,17C 470.159,14.5181 472.492,13.0181 475.5,12.5C 476.167,11.5 476.833,10.5 477.5,9.5C 479.614,12.1537 480.28,14.9871 479.5,18C 481.339,19.1316 483.339,19.9649 485.5,20.5C 486.167,27.3214 486.833,33.9881 487.5,40.5 Z"/></g>
<g><path style="opacity:1" fill="#2b2b2b" d="M 164.5,18.5 C 165.167,18.5 165.5,18.8333 165.5,19.5C 162.5,19.5 159.5,19.5 156.5,19.5C 156.83,35.6754 156.496,51.6754 155.5,67.5C 155.5,59.5 155.5,51.5 155.5,43.5C 155.5,36.8333 155.5,30.1667 155.5,23.5C 155.5,21.8333 155.5,20.1667 155.5,18.5C 158.5,18.5 161.5,18.5 164.5,18.5 Z"/></g>
<g><path style="opacity:1" fill="#151515" d="M 574.5,18.5 C 574.833,18.5 575.167,18.5 575.5,18.5C 575.813,22.0419 575.479,25.3752 574.5,28.5C 571.167,28.5 567.833,28.5 564.5,28.5C 564.5,25.1667 564.5,21.8333 564.5,18.5C 567.833,18.5 571.167,18.5 574.5,18.5 Z"/></g>
<g><path style="opacity:1" fill="#f4f4f4" d="M 586.5,-0.5 C 611.167,-0.5 635.833,-0.5 660.5,-0.5C 660.81,5.75757 660.476,11.9242 659.5,18C 651.653,18.1191 643.653,18.6191 635.5,19.5C 634.919,24.9752 635.586,30.1418 637.5,35C 637.272,35.3988 636.938,35.5654 636.5,35.5C 630.653,34.8399 626.487,37.1733 624,42.5C 622.571,53.0885 622.071,63.7551 622.5,74.5C 621.603,73.4019 620.77,73.4019 620,74.5C 621.763,67.478 621.93,60.3113 620.5,53C 620.156,51.6349 619.489,50.4682 618.5,49.5C 619.325,48.6143 620.325,48.281 621.5,48.5C 621.322,45.7835 620.822,43.1168 620,40.5C 618.956,41.6226 618.29,42.9559 618,44.5C 617.64,42.5789 616.806,40.9122 615.5,39.5C 616.348,37.5914 616.682,35.5914 616.5,33.5C 614.876,33.3601 613.71,34.0267 613,35.5C 611.661,30.2636 611.161,24.9302 611.5,19.5C 605.831,19.6432 600.331,19.6432 595,19.5C 593.941,19.6301 593.108,20.1301 592.5,21C 593.833,21.6667 593.833,22.3333 592.5,23C 593.646,23.6449 594.646,24.4783 595.5,25.5C 596.192,24.9747 596.692,24.3081 597,23.5C 597.419,24.6721 598.085,25.6721 599,26.5C 598.895,29.7693 599.395,33.1026 600.5,36.5C 598.695,37.2371 597.029,38.2371 595.5,39.5C 594.859,38.0065 593.859,37.0065 592.5,36.5C 590.843,34.2592 590.177,31.9259 590.5,29.5C 589.713,30.2421 589.047,31.0754 588.5,32C 586.171,32.6065 585.838,31.9398 587.5,30C 586.796,26.8725 586.296,23.7058 586,20.5C 582.982,19.9722 580.149,18.9722 577.5,17.5C 576.817,17.8627 576.15,18.1961 575.5,18.5C 575.167,18.5 574.833,18.5 574.5,18.5C 571.375,17.5206 568.042,17.1872 564.5,17.5C 564.338,15.4727 564.505,13.4727 565,11.5C 565.414,11.9574 565.914,12.2907 566.5,12.5C 569.685,8.96382 573.185,8.63048 577,11.5C 578.039,13.7463 579.206,15.913 580.5,18C 582.473,18.4955 584.473,18.6621 586.5,18.5C 586.5,12.1667 586.5,5.83333 586.5,-0.5 Z"/></g>
<g><path style="opacity:1" fill="#f6f6f6" d="M 289.5,-0.5 C 297.833,-0.5 306.167,-0.5 314.5,-0.5C 314.212,5.22887 314.546,10.8955 315.5,16.5C 312.694,17.1676 310.028,17.8343 307.5,18.5C 306.521,21.6248 306.187,24.9581 306.5,28.5C 310.167,28.5 313.833,28.5 317.5,28.5C 318.71,24.8688 319.21,21.2021 319,17.5C 325.247,19.1125 331.747,20.1125 338.5,20.5C 338.419,27.9862 338.419,35.6529 338.5,43.5C 332.101,43.0669 325.601,43.0669 319,43.5C 318.316,42.2161 318.483,41.0495 319.5,40C 318.934,39.0053 318.267,38.172 317.5,37.5C 314.038,36.5184 310.371,36.185 306.5,36.5C 306.17,52.6754 306.504,68.6754 307.5,84.5C 310.641,85.3213 313.975,85.8213 317.5,86C 315.137,86.5885 314.137,88.0885 314.5,90.5C 316.937,90.7563 319.271,91.4229 321.5,92.5C 326.629,91.9287 332.296,91.5953 338.5,91.5C 338.5,99.1667 338.5,106.833 338.5,114.5C 331.467,115.531 324.467,115.531 317.5,114.5C 313.426,117.232 312.426,120.899 314.5,125.5C 313.34,128.133 311.34,128.966 308.5,128C 309.535,126.493 309.368,124.993 308,123.5C 306.383,124.536 306.216,125.703 307.5,127C 301.285,128.416 294.952,128.916 288.5,128.5C 289.453,124.387 289.786,120.387 289.5,116.5C 297.629,115.862 305.629,115.195 313.5,114.5C 313.5,106.833 313.5,99.1667 313.5,91.5C 305.453,91.0171 297.453,91.0171 289.5,91.5C 289.739,89.5328 289.406,87.6995 288.5,86C 292.025,85.8213 295.359,85.3213 298.5,84.5C 299.376,84.6309 300.043,84.2975 300.5,83.5C 297.295,74.5526 294.295,65.5526 291.5,56.5C 293.828,53.3256 295.994,49.9923 298,46.5C 298.667,40.8333 298.667,35.1667 298,29.5C 296.006,25.0073 292.84,21.674 288.5,19.5C 288.611,18.8826 288.944,18.3826 289.5,18C 287.122,17.0255 287.456,16.3589 290.5,16C 289.527,10.5934 289.193,5.09345 289.5,-0.5 Z"/></g>
<g><path style="opacity:1" fill="#0c0c0c" d="M 307.5,18.5 C 310.833,18.5 314.167,18.5 317.5,18.5C 317.5,21.8333 317.5,25.1667 317.5,28.5C 313.833,28.5 310.167,28.5 306.5,28.5C 306.187,24.9581 306.521,21.6248 307.5,18.5 Z"/></g>
<g><path style="opacity:1" fill="#2e5f8f" d="M 95.5,82.5 C 94.5054,71.6794 94.1721,60.6794 94.5,49.5C 93.7724,46.9205 93.2724,44.2538 93,41.5C 91.8647,41.273 90.698,40.9396 89.5,40.5C 93.0206,39.85 94.0206,38.0166 92.5,35C 88.3318,36.0925 84.6652,38.2592 81.5,41.5C 83.2044,37.9482 85.5377,34.7815 88.5,32C 90.9203,31.3131 93.087,31.8131 95,33.5C 95.4999,49.8299 95.6666,66.1633 95.5,82.5 Z"/></g>
<g><path style="opacity:1" fill="#050505" d="M 592.5,36.5 C 593.859,37.0065 594.859,38.0065 595.5,39.5C 597.029,38.2371 598.695,37.2371 600.5,36.5C 606.935,35.1015 611.435,37.4349 614,43.5C 614.5,57.1626 614.667,70.8293 614.5,84.5C 611.167,84.5 607.833,84.5 604.5,84.5C 604.667,72.8286 604.5,61.1619 604,49.5C 601.523,44.6319 598.523,44.2986 595,48.5C 594.5,60.4954 594.333,72.4954 594.5,84.5C 591.167,84.5 587.833,84.5 584.5,84.5C 584.5,69.5 584.5,54.5 584.5,39.5C 584.5,38.5 584.5,37.5 584.5,36.5C 587.167,36.5 589.833,36.5 592.5,36.5 Z"/></g>
<g><path style="opacity:1" fill="#020202" d="M 317.5,37.5 C 317.5,42.5 317.5,47.5 317.5,52.5C 317.5,63.1667 317.5,73.8333 317.5,84.5C 314.167,84.5 310.833,84.5 307.5,84.5C 307.5,68.8333 307.5,53.1667 307.5,37.5C 310.833,37.5 314.167,37.5 317.5,37.5 Z"/></g>
<g><path style="opacity:1" fill="#020202" d="M 477.5,37.5 C 477.5,38.1667 477.5,38.8333 477.5,39.5C 477.5,54.5 477.5,69.5 477.5,84.5C 474.167,84.5 470.833,84.5 467.5,84.5C 467.5,68.8333 467.5,53.1667 467.5,37.5C 470.833,37.5 474.167,37.5 477.5,37.5 Z"/></g>
<g><path style="opacity:1" fill="#0e0e0e" d="M 575.5,66.5 C 575.5,72.5 575.5,78.5 575.5,84.5C 571.833,84.5 568.167,84.5 564.5,84.5C 564.5,70.1667 564.5,55.8333 564.5,41.5C 564.5,39.8333 564.5,38.1667 564.5,36.5C 568.106,36.2108 571.606,36.5442 575,37.5C 575.5,47.1609 575.666,56.8276 575.5,66.5 Z"/></g>
<g><path style="opacity:1" fill="#0c0c0c" d="M 515.5,36.5 C 516.497,54.3256 516.83,72.3256 516.5,90.5C 512.376,101.955 504.376,105.455 492.5,101C 488.59,97.7758 486.923,93.6091 487.5,88.5C 490.572,88.1826 493.572,88.5159 496.5,89.5C 498.416,93.9172 501.249,94.5839 505,91.5C 505.667,88.1667 505.667,84.8333 505,81.5C 498.903,85.6926 493.069,85.3593 487.5,80.5C 484.879,67.1407 484.879,53.8073 487.5,40.5C 492.635,36.0399 498.302,35.3733 504.5,38.5C 507.899,36.6878 511.566,36.0211 515.5,36.5 Z"/></g>
<g><path style="opacity:1" fill="#070707" d="M 237.5,84.5 C 233.566,84.9789 229.899,84.3122 226.5,82.5C 223.553,84.7039 220.22,85.7039 216.5,85.5C 209.392,83.4508 206.392,78.6175 207.5,71C 206.859,63.7628 209.859,58.9295 216.5,56.5C 220.167,56.5 223.833,56.5 227.5,56.5C 229.506,49.0193 226.839,45.8526 219.5,47C 218.663,48.0113 218.33,49.1779 218.5,50.5C 215.167,50.5 211.833,50.5 208.5,50.5C 208.5,48.8333 208.5,47.1667 208.5,45.5C 208.5,45.1667 208.5,44.8333 208.5,44.5C 209.921,41.2424 212.254,38.7424 215.5,37C 220.167,36.3333 224.833,36.3333 229.5,37C 232.807,38.7283 235.307,41.2283 237,44.5C 237.5,57.8292 237.667,71.1625 237.5,84.5 Z"/></g>
<g><path style="opacity:1" fill="#656565" d="M 317.5,37.5 C 314.167,37.5 310.833,37.5 307.5,37.5C 307.5,53.1667 307.5,68.8333 307.5,84.5C 306.504,68.6754 306.17,52.6754 306.5,36.5C 310.371,36.185 314.038,36.5184 317.5,37.5 Z"/></g>
<g><path style="opacity:1" fill="#0a0a0a" d="M 636.5,35.5 C 638.761,36.5897 640.594,38.2563 642,40.5C 642.49,39.2068 642.657,37.8734 642.5,36.5C 645.833,36.5 649.167,36.5 652.5,36.5C 652.963,56.2344 652.463,75.901 651,95.5C 649.437,98.7284 646.937,100.895 643.5,102C 639.5,102.667 635.5,102.667 631.5,102C 625.653,99.3131 623.653,94.9797 625.5,89C 628.146,88.5026 630.813,88.3359 633.5,88.5C 633.875,93.1824 636.208,94.5157 640.5,92.5C 641.192,91.9747 641.692,91.3081 642,90.5C 642.667,87.1667 642.667,83.8333 642,80.5C 637.178,84.9621 631.845,85.6288 626,82.5C 624.907,79.6907 623.74,77.024 622.5,74.5C 622.071,63.7551 622.571,53.0885 624,42.5C 626.487,37.1733 630.653,34.8399 636.5,35.5 Z"/></g>
<g><path style="opacity:1" fill="#ececec" d="M 116.5,-0.5 C 124.5,-0.5 132.5,-0.5 140.5,-0.5C 140.5,5.83333 140.5,12.1667 140.5,18.5C 144.182,18.3347 147.848,18.5014 151.5,19C 154.167,19.6667 154.167,20.3333 151.5,21C 152.984,21.6622 154.317,22.4955 155.5,23.5C 155.5,30.1667 155.5,36.8333 155.5,43.5C 150.92,43.2665 146.253,43.5998 141.5,44.5C 141.237,51.4315 140.403,58.4315 139,65.5C 131.264,65.9214 123.431,65.9214 115.5,65.5C 116.056,58.5065 116.723,51.5065 117.5,44.5C 124.745,43.0628 132.079,42.3961 139.5,42.5C 140.552,35.134 140.552,27.8007 139.5,20.5C 131.824,19.7335 124.158,19.0669 116.5,18.5C 116.5,12.1667 116.5,5.83333 116.5,-0.5 Z"/></g>
<g><path style="opacity:1" fill="#f1f1f1" d="M 317.5,37.5 C 318.267,38.172 318.934,39.0053 319.5,40C 318.483,41.0495 318.316,42.2161 319,43.5C 325.601,43.0669 332.101,43.0669 338.5,43.5C 340.331,44.0522 341.997,44.0522 343.5,43.5C 344.288,44.7701 345.288,45.7701 346.5,46.5C 348.294,48.7966 350.294,50.9633 352.5,53C 357.955,54.3688 362.789,56.8688 367,60.5C 367.791,64.9255 367.457,69.2589 366,73.5C 358.046,77.0661 354.213,74.3994 354.5,65.5C 350.671,64.931 347.337,65.5977 344.5,67.5C 343.859,70.9269 342.692,74.2603 341,77.5C 338.871,78.8627 338.371,78.5294 339.5,76.5C 339.043,75.7025 338.376,75.3691 337.5,75.5C 334.096,72.0633 330.429,71.73 326.5,74.5C 323.531,74.9392 322.864,76.4392 324.5,79C 322.646,80.5228 321.146,82.3562 320,84.5C 319.667,83.8333 319.333,83.1667 319,82.5C 318.83,72.3249 318.33,62.3249 317.5,52.5C 317.5,47.5 317.5,42.5 317.5,37.5 Z"/></g>
<g><path style="opacity:1" fill="#f8f8f8" d="M 408.5,43.5 C 409.833,43.5 411.167,43.5 412.5,43.5C 412.817,59.5775 412.484,75.5775 411.5,91.5C 404.615,91.4264 397.615,91.4264 390.5,91.5C 389.28,91.1131 388.613,90.2798 388.5,89C 389.429,87.9231 390.096,86.7564 390.5,85.5C 396.364,83.7457 397.864,80.079 395,74.5C 391.913,72.2653 388.747,72.0986 385.5,74C 384.748,74.6708 384.414,75.5041 384.5,76.5C 383.71,77.6085 383.21,78.9419 383,80.5C 381.626,78.1765 381.293,75.8431 382,73.5C 380.602,72.464 379.102,72.464 377.5,73.5C 377.5,72.1667 377.5,70.8333 377.5,69.5C 378.309,67.7078 378.809,65.7078 379,63.5C 379.199,65.4025 380.033,66.9025 381.5,68C 391.483,69.3459 401.483,69.1792 411.5,67.5C 405.862,66.6701 400.196,66.1701 394.5,66C 393.975,65.3076 393.308,64.8076 392.5,64.5C 391.572,66.3348 390.406,66.6682 389,65.5C 388.169,58.4763 388.336,51.4763 389.5,44.5C 395.697,42.1846 402.031,41.8513 408.5,43.5 Z"/></g>
<g><path style="opacity:1" fill="#0a0a0a" d="M 538.5,35.5 C 540.735,36.2279 542.568,37.5612 544,39.5C 544.374,38.5838 544.874,37.7504 545.5,37C 548.5,36.3333 551.5,36.3333 554.5,37C 555.451,40.0567 555.784,43.2234 555.5,46.5C 555.5,57.5 555.5,68.5 555.5,79.5C 557.296,88.3644 554.962,95.6977 548.5,101.5C 546.5,101.833 544.5,102.167 542.5,102.5C 532.436,103.818 527.103,99.4848 526.5,89.5C 529.469,88.6713 532.469,88.5046 535.5,89C 537.324,93.6356 540.157,94.469 544,91.5C 544.483,90.552 544.649,89.552 544.5,88.5C 545.797,86.3066 545.797,83.9732 544.5,81.5C 543.893,81.6236 543.56,81.9569 543.5,82.5C 535.713,87.65 529.88,85.9833 526,77.5C 525.333,66.1667 525.333,54.8333 526,43.5C 528.236,37.9581 532.402,35.2915 538.5,35.5 Z"/></g>
<g><path style="opacity:1" fill="#eeeeee" d="M 499.5,45.5 C 501.993,45.3291 503.826,46.3291 505,48.5C 505.667,56.5 505.667,64.5 505,72.5C 502.371,76.3475 499.705,76.3475 497,72.5C 496.333,64.5 496.333,56.5 497,48.5C 498.045,47.6266 498.878,46.6266 499.5,45.5 Z"/></g>
<g><path style="opacity:1" fill="#f0f0f0" d="M 538.5,45.5 C 540.722,45.178 542.556,45.8446 544,47.5C 544.667,56.1667 544.667,64.8333 544,73.5C 541.084,75.0135 538.418,74.6801 536,72.5C 535.333,64.5 535.333,56.5 536,48.5C 537.045,47.6266 537.878,46.6266 538.5,45.5 Z"/></g>
<g><path style="opacity:1" fill="#f2f2f2" d="M 536.5,19.5 C 536.203,23.7675 536.536,27.9341 537.5,32C 536.672,32.9147 535.672,33.5814 534.5,34C 536.058,34.21 537.391,34.71 538.5,35.5C 532.402,35.2915 528.236,37.9581 526,43.5C 525.333,54.8333 525.333,66.1667 526,77.5C 529.88,85.9833 535.713,87.65 543.5,82.5C 544.461,84.2646 544.795,86.2646 544.5,88.5C 544.649,89.552 544.483,90.552 544,91.5C 540.157,94.469 537.324,93.6356 535.5,89C 532.469,88.5046 529.469,88.6713 526.5,89.5C 525.518,90.1408 524.518,90.8075 523.5,91.5C 522.117,88.9244 521.283,89.2577 521,92.5C 520.667,91.5 520.333,90.5 520,89.5C 519.076,91.4951 517.91,91.8284 516.5,90.5C 516.83,72.3256 516.497,54.3256 515.5,36.5C 512.972,35.8343 510.306,35.1676 507.5,34.5C 507.291,33.914 506.957,33.414 506.5,33C 508.075,33.379 509.575,33.2123 511,32.5C 511.923,28.2099 512.423,23.8766 512.5,19.5C 520.5,19.5 528.5,19.5 536.5,19.5 Z"/></g>
<g><path style="opacity:1" fill="#090909" d="M 444.5,18.5 C 451.323,19.9905 455.99,23.9905 458.5,30.5C 458.666,34.8461 458.499,39.1794 458,43.5C 456.878,48.4363 454.378,52.4363 450.5,55.5C 453.794,64.4172 456.794,73.4172 459.5,82.5C 456.316,84.4136 452.649,85.0803 448.5,84.5C 445.853,75.5811 443.353,66.5811 441,57.5C 439.301,56.5939 437.467,56.2606 435.5,56.5C 435.5,65.8333 435.5,75.1667 435.5,84.5C 432.167,84.5 428.833,84.5 425.5,84.5C 425.5,62.5 425.5,40.5 425.5,18.5C 431.833,18.5 438.167,18.5 444.5,18.5 Z"/></g>
<g><path style="opacity:1" fill="#e5e5e4" d="M 435.5,28.5 C 446.446,27.6596 450.279,32.6596 447,43.5C 446.535,44.9308 445.701,46.0975 444.5,47C 441.518,47.498 438.518,47.6646 435.5,47.5C 435.5,41.1667 435.5,34.8333 435.5,28.5 Z"/></g>
<g><path style="opacity:1" fill="#dadada" d="M 208.5,45.5 C 208.5,47.1667 208.5,48.8333 208.5,50.5C 211.833,50.5 215.167,50.5 218.5,50.5C 218.33,49.1779 218.663,48.0113 219.5,47C 226.839,45.8526 229.506,49.0193 227.5,56.5C 223.833,56.5 220.167,56.5 216.5,56.5C 215.952,55.3115 215.619,54.1448 215.5,53C 212.883,52.1785 210.216,51.6785 207.5,51.5C 207.205,49.2646 207.539,47.2646 208.5,45.5 Z"/></g>
<g><path style="opacity:1" fill="#0a0808" d="M 288.5,19.5 C 292.84,21.674 296.006,25.0073 298,29.5C 298.667,35.1667 298.667,40.8333 298,46.5C 295.994,49.9923 293.828,53.3256 291.5,56.5C 294.295,65.5526 297.295,74.5526 300.5,83.5C 300.043,84.2975 299.376,84.6309 298.5,84.5C 295.223,84.7839 292.057,84.4505 289,83.5C 286.592,74.7795 284.092,66.1128 281.5,57.5C 279.735,56.5386 277.735,56.2053 275.5,56.5C 275.5,65.8333 275.5,75.1667 275.5,84.5C 272.167,84.5 268.833,84.5 265.5,84.5C 265.5,70.5 265.5,56.5 265.5,42.5C 265.185,34.5803 265.518,26.747 266.5,19C 273.869,18.2743 281.202,18.4409 288.5,19.5 Z"/></g>
<g><path style="opacity:1" fill="#ecedeb" d="M 276.5,28.5 C 284.003,26.7306 288.003,29.564 288.5,37C 289.216,45.7845 285.216,49.6178 276.5,48.5C 276.5,41.8333 276.5,35.1667 276.5,28.5 Z"/></g>
<g><path style="opacity:1" fill="#03519e" d="M 94.5,49.5 C 93.4011,59.6674 92.9011,70.0008 93,80.5C 93.4173,84.5802 95.584,87.0802 99.5,88C 96.1202,89.4407 92.9535,91.2741 90,93.5C 88.887,92.2396 88.7203,91.073 89.5,90C 88.8333,89.6667 88.1667,89.3333 87.5,89C 88.1667,87.3333 88.8333,85.6667 89.5,84C 88.4177,74.8532 88.2511,65.3532 89,55.5C 89.3333,54.5 89.6667,53.5 90,52.5C 90.3333,52.8333 90.6667,53.1667 91,53.5C 91.8214,50.4459 91.6548,47.4459 90.5,44.5C 89.5713,45.6888 89.238,47.0222 89.5,48.5C 87.7376,48.6427 86.0709,48.3094 84.5,47.5C 83.1934,48.8155 81.6934,49.8155 80,50.5C 78.6127,48.8063 78.946,47.1396 81,45.5C 81.49,44.2068 81.6567,42.8734 81.5,41.5C 84.6652,38.2592 88.3318,36.0925 92.5,35C 94.0206,38.0166 93.0206,39.85 89.5,40.5C 90.698,40.9396 91.8647,41.273 93,41.5C 93.2724,44.2538 93.7724,46.9205 94.5,49.5 Z"/></g>
<g><path style="opacity:1" fill="#0d0d0d" d="M 199.5,42.5 C 199.5,56.5 199.5,70.5 199.5,84.5C 196.167,84.5 192.833,84.5 189.5,84.5C 189.832,71.8158 189.499,59.1492 188.5,46.5C 187.893,46.6236 187.56,46.9569 187.5,47.5C 185.166,56.1674 182.833,64.834 180.5,73.5C 178.208,73.7564 176.041,73.4231 174,72.5C 172.099,65.0466 169.932,57.7132 167.5,50.5C 167.013,49.5266 166.513,48.5266 166,47.5C 165.5,59.8288 165.333,72.1622 165.5,84.5C 162.167,84.5 158.833,84.5 155.5,84.5C 155.5,78.8333 155.5,73.1667 155.5,67.5C 156.496,51.6754 156.83,35.6754 156.5,19.5C 159.5,19.5 162.5,19.5 165.5,19.5C 169.402,30.7034 173.235,42.0367 177,53.5C 180.859,42.2552 184.526,30.9219 188,19.5C 191.73,18.5399 195.563,18.2065 199.5,18.5C 199.5,26.5 199.5,34.5 199.5,42.5 Z"/></g>
<g><path style="opacity:1" fill="#080808" d="M 357.5,18.5 C 371.511,17.3456 378.011,23.679 377,37.5C 373.943,38.4505 370.777,38.7839 367.5,38.5C 367.715,29.0319 363.882,26.6985 356,31.5C 355.333,34.8333 355.333,38.1667 356,41.5C 360.713,45.0783 365.879,47.9117 371.5,50C 377.004,55.3131 379.004,61.8131 377.5,69.5C 377.5,70.8333 377.5,72.1667 377.5,73.5C 373.21,83.6457 365.543,87.4791 354.5,85C 346.902,81.6406 343.569,75.8073 344.5,67.5C 347.337,65.5977 350.671,64.931 354.5,65.5C 354.213,74.3994 358.046,77.0661 366,73.5C 367.457,69.2589 367.791,64.9255 367,60.5C 362.789,56.8688 357.955,54.3688 352.5,53C 350.294,50.9633 348.294,48.7966 346.5,46.5C 345.217,43.3096 344.55,39.9763 344.5,36.5C 344.475,27.1748 348.809,21.1748 357.5,18.5 Z"/></g>
<g><path style="opacity:1" fill="#b0b0b0" d="M 167.5,50.5 C 166.833,61.8333 166.167,73.1667 165.5,84.5C 165.333,72.1622 165.5,59.8288 166,47.5C 166.513,48.5266 167.013,49.5266 167.5,50.5 Z"/></g>
<g><path style="opacity:1" fill="#5d5d5d" d="M 477.5,37.5 C 474.167,37.5 470.833,37.5 467.5,37.5C 467.5,53.1667 467.5,68.8333 467.5,84.5C 466.504,68.6754 466.17,52.6754 466.5,36.5C 470.371,36.185 474.038,36.5184 477.5,37.5 Z"/></g>
<g><path style="opacity:1" fill="#f0f1f2" d="M 155.5,43.5 C 155.5,51.5 155.5,59.5 155.5,67.5C 155.5,73.1667 155.5,78.8333 155.5,84.5C 158.641,85.3213 161.975,85.8213 165.5,86C 164.833,86.3333 164.167,86.6667 163.5,87C 165.158,87.7253 165.658,88.892 165,90.5C 157.632,90.7553 150.132,91.422 142.5,92.5C 141.137,93.8928 140.304,95.5595 140,97.5C 139.501,103.491 139.334,109.491 139.5,115.5C 131.813,115.46 124.146,115.793 116.5,116.5C 116.714,118.144 116.38,119.644 115.5,121C 116.823,121.816 117.489,122.983 117.5,124.5C 116.167,124.167 114.833,123.833 113.5,123.5C 108.738,117.623 108.238,111.29 112,104.5C 119.528,96.8734 128.695,92.7067 139.5,92C 140.591,89.9361 140.758,87.7695 140,85.5C 127.907,78.3983 115.074,76.7317 101.5,80.5C 100.448,78.744 98.7812,78.0773 96.5,78.5C 95.7253,74.8184 97.0586,72.3184 100.5,71C 99.4642,69.3831 98.2975,69.2164 97,70.5C 96.2506,69.365 96.4173,68.365 97.5,67.5C 98.8123,68.4604 100.146,68.2937 101.5,67C 106.184,66.565 110.851,66.065 115.5,65.5C 123.431,65.9214 131.264,65.9214 139,65.5C 140.403,58.4315 141.237,51.4315 141.5,44.5C 146.253,43.5998 150.92,43.2665 155.5,43.5 Z"/></g>
<g><path style="opacity:1" fill="#f1f3f3" d="M 199.5,42.5 C 202.689,42.8583 205.689,43.525 208.5,44.5C 208.5,44.8333 208.5,45.1667 208.5,45.5C 207.539,47.2646 207.205,49.2646 207.5,51.5C 210.216,51.6785 212.883,52.1785 215.5,53C 215.619,54.1448 215.952,55.3115 216.5,56.5C 209.859,58.9295 206.859,63.7628 207.5,71C 206.392,78.6175 209.392,83.4508 216.5,85.5C 218.636,87.6953 221.302,89.0287 224.5,89.5C 225.541,87.0087 226.374,87.0087 227,89.5C 228.067,87.7174 229.567,87.2174 231.5,88C 233.36,90.0616 235.694,91.3949 238.5,92C 235.579,92.1498 232.746,91.6498 230,90.5C 226.2,90.8465 221.7,91.1798 216.5,91.5C 215.167,99.1667 215.167,106.833 216.5,114.5C 222.776,114.217 229.109,114.217 235.5,114.5C 235.527,106.606 236.193,106.606 237.5,114.5C 238.169,112.369 238.835,110.369 239.5,108.5C 239.5,110.5 239.5,112.5 239.5,114.5C 246.841,114.334 254.174,114.5 261.5,115C 262.333,115.833 263.167,116.667 264,117.5C 264.499,121.152 264.665,124.818 264.5,128.5C 272.5,128.5 280.5,128.5 288.5,128.5C 294.952,128.916 301.285,128.416 307.5,127C 306.216,125.703 306.383,124.536 308,123.5C 309.368,124.993 309.535,126.493 308.5,128C 311.34,128.966 313.34,128.133 314.5,125.5C 314.5,126.5 314.5,127.5 314.5,128.5C 322.833,128.5 331.167,128.5 339.5,128.5C 343.182,128.665 346.848,128.499 350.5,128C 351.696,127.346 351.696,126.846 350.5,126.5C 349.549,127.326 348.549,127.492 347.5,127C 349.09,125.954 350.59,124.787 352,123.5C 354.135,125.278 356.635,125.945 359.5,125.5C 359.5,126.5 359.5,127.5 359.5,128.5C 369.582,127.906 379.582,127.906 389.5,128.5C 411.025,128.288 432.525,128.288 454,128.5C 455.981,128.371 457.647,127.704 459,126.5C 459.333,127.167 459.667,127.833 460,128.5C 460.671,127.748 461.504,127.414 462.5,127.5C 463.995,127.989 465.329,128.655 466.5,129.5C 356.999,129.833 247.665,129.499 138.5,128.5C 140.461,124.947 141.794,120.947 142.5,116.5C 149.736,114.969 157.07,114.302 164.5,114.5C 164.447,107.414 165.114,100.414 166.5,93.5C 173.419,91.9262 180.419,90.7596 187.5,90C 183.701,88.8862 183.701,87.5529 187.5,86C 186.747,84.513 185.914,84.3463 185,85.5C 184.654,83.7818 184.154,82.1151 183.5,80.5C 183.846,79.3044 184.346,79.3044 185,80.5C 185.845,77.8697 185.345,75.5364 183.5,73.5C 184.522,72.646 185.355,71.646 186,70.5C 186.333,70.8333 186.667,71.1667 187,71.5C 187.179,67.9748 187.679,64.6414 188.5,61.5C 188.175,69.3516 188.508,77.0182 189.5,84.5C 192.833,84.5 196.167,84.5 199.5,84.5C 199.5,70.5 199.5,56.5 199.5,42.5 Z"/></g>
<g><path style="opacity:1" fill="#3f3f3f" d="M 281.5,57.5 C 279.833,57.5 278.167,57.5 276.5,57.5C 276.827,66.6822 276.493,75.6822 275.5,84.5C 275.5,75.1667 275.5,65.8333 275.5,56.5C 277.735,56.2053 279.735,56.5386 281.5,57.5 Z"/></g>
<g><path style="opacity:1" fill="#e3e3e3" d="M 221.5,64.5 C 223.5,64.5 225.5,64.5 227.5,64.5C 227.82,67.8984 227.487,71.2317 226.5,74.5C 219.218,78.026 216.385,75.6927 218,67.5C 219.145,66.3636 220.312,65.3636 221.5,64.5 Z"/></g>
<g><path style="opacity:1" fill="#f3f3f3" d="M 652.5,36.5 C 652.56,35.9569 652.893,35.6236 653.5,35.5C 654.415,36.3279 655.081,37.3279 655.5,38.5C 654.948,40.0026 654.948,41.6693 655.5,43.5C 658.157,43.162 660.49,43.8287 662.5,45.5C 666.777,44.3945 671.11,44.2278 675.5,45C 676.304,46.7713 677.471,48.2713 679,49.5C 679.278,48.5842 679.778,47.9175 680.5,47.5C 680.5,78.5 680.5,109.5 680.5,140.5C 676.098,140.772 671.765,140.439 667.5,139.5C 665.831,140.89 664.164,141.223 662.5,140.5C 661.833,141.5 661.167,142.5 660.5,143.5C 659.482,142.807 658.482,142.141 657.5,141.5C 657.5,140.167 657.5,138.833 657.5,137.5C 657.795,135.265 657.461,133.265 656.5,131.5C 633.524,129.51 610.191,128.843 586.5,129.5C 586.5,129.167 586.5,128.833 586.5,128.5C 587.468,126.393 587.802,124.059 587.5,121.5C 590.548,121.506 591.048,120.506 589,118.5C 588.667,118.833 588.333,119.167 588,119.5C 587.517,118.552 587.351,117.552 587.5,116.5C 595.146,115.793 602.813,115.46 610.5,115.5C 610.5,119.833 610.5,124.167 610.5,128.5C 619.167,128.5 627.833,128.5 636.5,128.5C 636.078,124.278 636.745,120.278 638.5,116.5C 645.776,115.535 653.109,115.201 660.5,115.5C 660.5,107.5 660.5,99.5 660.5,91.5C 658.167,91.5 655.833,91.5 653.5,91.5C 653.83,72.9924 653.497,54.6591 652.5,36.5 Z"/></g>
<g><path style="opacity:1" fill="#434343" d="M 187.5,47.5 C 187.56,46.9569 187.893,46.6236 188.5,46.5C 189.499,59.1492 189.832,71.8158 189.5,84.5C 188.508,77.0182 188.175,69.3516 188.5,61.5C 188.819,56.6367 188.486,51.97 187.5,47.5 Z"/></g>
<g><path style="opacity:1" fill="#111111" d="M 390.5,85.5 C 388.053,85.385 386.053,84.385 384.5,82.5C 384.5,80.5 384.5,78.5 384.5,76.5C 384.414,75.5041 384.748,74.6708 385.5,74C 388.747,72.0986 391.913,72.2653 395,74.5C 397.864,80.079 396.364,83.7457 390.5,85.5 Z"/></g>
<g><path style="opacity:1" fill="#e7eced" d="M 66.5,115.5 C 63.9024,120.937 62.2357,126.77 61.5,133C 61.6573,139.513 64.3239,141.013 69.5,137.5C 70.779,123.944 76.1123,112.278 85.5,102.5C 85.9825,107.208 84.1492,110.542 80,112.5C 78.093,115.309 76.4264,118.309 75,121.5C 73.7563,127.111 72.7563,132.778 72,138.5C 69.5316,138.869 67.365,140.369 65.5,143C 66.4601,146.73 66.7935,150.563 66.5,154.5C 58.1667,154.5 49.8333,154.5 41.5,154.5C 41.8,149.901 41.4667,145.401 40.5,141C 33.9191,140.813 27.4191,140.313 21,139.5C 19.5618,140.718 17.8951,141.385 16,141.5C 13.6446,140.487 11.3112,139.487 9,138.5C 7.77645,133.387 9.10978,129.053 13,125.5C 13.49,124.207 13.6567,122.873 13.5,121.5C 15.5,121.167 17.5,120.833 19.5,120.5C 16.922,124.646 14.0887,128.646 11,132.5C 10.3357,137.496 12.5023,139.33 17.5,138C 22.0977,133.243 26.0977,128.076 29.5,122.5C 30.3382,122.158 30.6716,121.492 30.5,120.5C 32.5,118.5 34.5,116.5 36.5,114.5C 37.2297,116.045 38.563,116.878 40.5,117C 40.1667,117.333 39.8333,117.667 39.5,118C 41.2231,121.356 42.2231,125.023 42.5,129C 41.1829,133.079 41.6829,136.912 44,140.5C 49.4105,139.97 54.7438,139.97 60,140.5C 59.0103,132.057 59.8436,123.723 62.5,115.5C 55.6732,115.744 49.3398,115.744 43.5,115.5C 41.0126,112.758 41.0126,110.091 43.5,107.5C 43.0302,106.537 42.3635,106.537 41.5,107.5C 46.1667,100.833 50.8333,94.1667 55.5,87.5C 65.8027,75.0212 75.9694,62.3545 86,49.5C 86.8327,63.1788 86.6661,76.8455 85.5,90.5C 77.2302,97.4268 70.8969,105.76 66.5,115.5 Z"/></g>
<g><path style="opacity:1" fill="#f5f5f4" d="M -0.5,43.5 C 5.02979,43.783 10.5298,44.1163 16,44.5C 16.4691,51.7676 17.3025,59.1009 18.5,66.5C 25.8174,67.1178 33.1507,67.4512 40.5,67.5C 40.6567,66.1266 40.49,64.7932 40,63.5C 34.1959,59.6485 32.3626,54.3152 34.5,47.5C 31.1016,47.8204 27.7683,47.487 24.5,46.5C 25.3333,46.1667 26.1667,45.8333 27,45.5C 31.1263,46.3293 35.2929,46.6626 39.5,46.5C 39.3118,48.1033 39.8118,49.4366 41,50.5C 41.4182,45.9146 43.9182,43.5813 48.5,43.5C 53.6256,44.1729 58.9589,44.5063 64.5,44.5C 65.2186,47.0725 66.2186,49.5725 67.5,52C 66.8333,53.3333 65.8333,54.3333 64.5,55C 65.5947,57.2689 65.2614,59.4355 63.5,61.5C 61.0425,62.1243 59.3758,63.6243 58.5,66C 56.1287,66.7348 53.7954,67.5682 51.5,68.5C 50.1804,66.7299 48.6804,66.3966 47,67.5C 47.5936,69.5095 47.4269,71.5095 46.5,73.5C 47.2472,73.7365 48.0805,74.0698 49,74.5C 49.7975,76.2588 49.6309,77.9255 48.5,79.5C 45.2352,84.932 41.4018,89.932 37,94.5C 35.7365,96.607 33.9032,97.607 31.5,97.5C 31.0338,95.7988 31.0338,94.2988 31.5,93C 26.8452,92.5008 22.1785,92.3342 17.5,92.5C 17.5,97.8333 17.5,103.167 17.5,108.5C 16.6914,110.973 16.358,113.306 16.5,115.5C 11.1048,114.73 5.43813,114.397 -0.5,114.5C -0.5,90.8333 -0.5,67.1667 -0.5,43.5 Z"/></g>
<g><path style="opacity:1" fill="#5d5d5d" d="M 543.5,82.5 C 543.56,81.9569 543.893,81.6236 544.5,81.5C 545.797,83.9732 545.797,86.3066 544.5,88.5C 544.795,86.2646 544.461,84.2646 543.5,82.5 Z"/></g>
<g><path style="opacity:1" fill="#165595" d="M 81.5,41.5 C 81.6567,42.8734 81.49,44.2068 81,45.5C 78.946,47.1396 78.6127,48.8063 80,50.5C 81.6934,49.8155 83.1934,48.8155 84.5,47.5C 86.0709,48.3094 87.7376,48.6427 89.5,48.5C 89.238,47.0222 89.5713,45.6888 90.5,44.5C 91.6548,47.4459 91.8214,50.4459 91,53.5C 90.6667,53.1667 90.3333,52.8333 90,52.5C 89.6667,53.5 89.3333,54.5 89,55.5C 88.2511,65.3532 88.4177,74.8532 89.5,84C 88.8333,85.6667 88.1667,87.3333 87.5,89C 88.1667,89.3333 88.8333,89.6667 89.5,90C 88.7203,91.073 88.887,92.2396 90,93.5C 92.9535,91.2741 96.1202,89.4407 99.5,88C 95.584,87.0802 93.4173,84.5802 93,80.5C 92.9011,70.0008 93.4011,59.6674 94.5,49.5C 94.1721,60.6794 94.5054,71.6794 95.5,82.5C 97.5,81.8333 99.5,81.1667 101.5,80.5C 115.074,76.7317 127.907,78.3983 140,85.5C 140.758,87.7695 140.591,89.9361 139.5,92C 128.695,92.7067 119.528,96.8734 112,104.5C 108.238,111.29 108.738,117.623 113.5,123.5C 113.5,123.833 113.5,124.167 113.5,124.5C 111.547,123.374 110.047,121.708 109,119.5C 108.392,116.183 107.892,112.849 107.5,109.5C 107.733,107.22 108.566,105.22 110,103.5C 112.939,101.604 115.439,99.2704 117.5,96.5C 116.529,95.0379 116.862,93.7046 118.5,92.5C 117.311,91.5713 115.978,91.238 114.5,91.5C 115.574,90.1154 116.907,88.9487 118.5,88C 104.845,86.828 93.8454,91.6614 85.5,102.5C 76.1123,112.278 70.779,123.944 69.5,137.5C 67.8561,137.714 66.3561,137.38 65,136.5C 64.6627,129.442 65.1627,122.442 66.5,115.5C 70.8969,105.76 77.2302,97.4268 85.5,90.5C 86.6661,76.8455 86.8327,63.1788 86,49.5C 75.9694,62.3545 65.8027,75.0212 55.5,87.5C 49.6938,85.7397 48.0272,87.7397 50.5,93.5C 47.5299,93.7458 46.1966,95.4124 46.5,98.5C 45.5,98.5 44.5,98.5 43.5,98.5C 43.762,99.9778 43.4287,101.311 42.5,102.5C 38.4136,106.619 36.9136,105.619 38,99.5C 39.9517,97.2588 42.1184,95.2588 44.5,93.5C 45.9411,89.6257 47.6077,85.959 49.5,82.5C 59.5,69.1667 69.5,55.8333 79.5,42.5C 80.1667,42.1667 80.8333,41.8333 81.5,41.5 Z"/></g>
<g><path style="opacity:1" fill="#eaeaea" d="M 317.5,52.5 C 318.33,62.3249 318.83,72.3249 319,82.5C 319.333,83.1667 319.667,83.8333 320,84.5C 321.146,82.3562 322.646,80.5228 324.5,79C 322.864,76.4392 323.531,74.9392 326.5,74.5C 323.936,80.3199 325.603,83.9866 331.5,85.5C 333.481,85.5629 335.148,84.8962 336.5,83.5C 337.393,80.9159 337.726,78.2492 337.5,75.5C 338.376,75.3691 339.043,75.7025 339.5,76.5C 338.371,78.5294 338.871,78.8627 341,77.5C 342.692,74.2603 343.859,70.9269 344.5,67.5C 343.569,75.8073 346.902,81.6406 354.5,85C 365.543,87.4791 373.21,83.6457 377.5,73.5C 379.102,72.464 380.602,72.464 382,73.5C 381.293,75.8431 381.626,78.1765 383,80.5C 383.21,78.9419 383.71,77.6085 384.5,76.5C 384.5,78.5 384.5,80.5 384.5,82.5C 382.983,82.4894 381.816,81.8228 381,80.5C 380.667,81.1667 380.333,81.8333 380,82.5C 379.107,81.2888 378.274,81.2888 377.5,82.5C 379.27,83.8196 379.603,85.3196 378.5,87C 380.279,86.0209 381.945,86.3542 383.5,88C 377.163,88.8368 377.497,89.5034 384.5,90C 377.15,90.7063 369.817,91.5397 362.5,92.5C 364.004,100.181 364.337,107.848 363.5,115.5C 355.637,115.49 347.97,115.657 340.5,116C 339.536,120.066 339.203,124.233 339.5,128.5C 331.167,128.5 322.833,128.5 314.5,128.5C 314.5,127.5 314.5,126.5 314.5,125.5C 312.426,120.899 313.426,117.232 317.5,114.5C 324.467,115.531 331.467,115.531 338.5,114.5C 338.5,106.833 338.5,99.1667 338.5,91.5C 332.296,91.5953 326.629,91.9287 321.5,92.5C 319.271,91.4229 316.937,90.7563 314.5,90.5C 314.137,88.0885 315.137,86.5885 317.5,86C 313.975,85.8213 310.641,85.3213 307.5,84.5C 310.833,84.5 314.167,84.5 317.5,84.5C 317.5,73.8333 317.5,63.1667 317.5,52.5 Z"/></g>
<g><path style="opacity:1" fill="#101010" d="M 337.5,75.5 C 337.726,78.2492 337.393,80.9159 336.5,83.5C 335.148,84.8962 333.481,85.5629 331.5,85.5C 325.603,83.9866 323.936,80.3199 326.5,74.5C 330.429,71.73 334.096,72.0633 337.5,75.5 Z"/></g>
<g><path style="opacity:1" fill="#f4f3f3" d="M 265.5,42.5 C 265.5,56.5 265.5,70.5 265.5,84.5C 268.689,85.1661 272.023,85.8328 275.5,86.5C 273.871,86.3723 272.538,87.3723 271.5,89.5C 269.902,87.0266 268.402,87.0266 267,89.5C 267.077,88.2624 266.911,87.2624 266.5,86.5C 265.333,88.0792 264,89.4125 262.5,90.5C 254.791,90.2689 247.124,90.6022 239.5,91.5C 239.5,97.1667 239.5,102.833 239.5,108.5C 238.835,110.369 238.169,112.369 237.5,114.5C 236.193,106.606 235.527,106.606 235.5,114.5C 229.109,114.217 222.776,114.217 216.5,114.5C 215.167,106.833 215.167,99.1667 216.5,91.5C 221.7,91.1798 226.2,90.8465 230,90.5C 232.746,91.6498 235.579,92.1498 238.5,92C 235.694,91.3949 233.36,90.0616 231.5,88C 229.567,87.2174 228.067,87.7174 227,89.5C 226.374,87.0087 225.541,87.0087 224.5,89.5C 221.302,89.0287 218.636,87.6953 216.5,85.5C 220.22,85.7039 223.553,84.7039 226.5,82.5C 229.899,84.3122 233.566,84.9789 237.5,84.5C 238.385,70.4571 238.885,56.4571 239,42.5C 247.866,44.957 256.699,44.957 265.5,42.5 Z"/></g>
<g><path style="opacity:1" fill="#121212" d="M 248.5,72.5 C 256.602,73.0676 258.936,76.9009 255.5,84C 247.185,87.2758 244.018,84.4425 246,75.5C 246.698,74.3094 247.531,73.3094 248.5,72.5 Z"/></g>
<g><path style="opacity:1" fill="#ebebeb" d="M 281.5,57.5 C 284.092,66.1128 286.592,74.7795 289,83.5C 292.057,84.4505 295.223,84.7839 298.5,84.5C 295.359,85.3213 292.025,85.8213 288.5,86C 289.406,87.6995 289.739,89.5328 289.5,91.5C 297.453,91.0171 305.453,91.0171 313.5,91.5C 313.5,99.1667 313.5,106.833 313.5,114.5C 305.833,114.5 298.167,114.5 290.5,114.5C 290.145,107.2 289.479,99.8667 288.5,92.5C 280.586,91.5328 272.586,91.1995 264.5,91.5C 263.508,91.6716 262.842,91.3382 262.5,90.5C 264,89.4125 265.333,88.0792 266.5,86.5C 266.911,87.2624 267.077,88.2624 267,89.5C 268.402,87.0266 269.902,87.0266 271.5,89.5C 272.538,87.3723 273.871,86.3723 275.5,86.5C 272.023,85.8328 268.689,85.1661 265.5,84.5C 268.833,84.5 272.167,84.5 275.5,84.5C 276.493,75.6822 276.827,66.6822 276.5,57.5C 278.167,57.5 279.833,57.5 281.5,57.5 Z"/></g>
<g><path style="opacity:1" fill="#0355aa" d="M 128.5,84.5 C 131.516,84.8406 134.182,86.0073 136.5,88C 134.5,89 132.5,90 130.5,91C 128.299,91.8249 126.466,91.3249 125,89.5C 122.222,90.6853 120.722,89.6853 120.5,86.5C 123.066,86.3444 125.566,86.6777 128,87.5C 129.762,87.0556 129.595,86.5556 127.5,86C 128.056,85.6174 128.389,85.1174 128.5,84.5 Z"/></g>
<g><path style="opacity:1" fill="#ebebeb" d="M 262.5,90.5 C 262.842,91.3382 263.508,91.6716 264.5,91.5C 264.5,99.1667 264.5,106.833 264.5,114.5C 272.197,114.571 279.863,114.738 287.5,115C 288.481,107.587 288.814,100.087 288.5,92.5C 289.479,99.8667 290.145,107.2 290.5,114.5C 298.167,114.5 305.833,114.5 313.5,114.5C 305.629,115.195 297.629,115.862 289.5,116.5C 289.786,120.387 289.453,124.387 288.5,128.5C 280.5,128.5 272.5,128.5 264.5,128.5C 264.665,124.818 264.499,121.152 264,117.5C 263.167,116.667 262.333,115.833 261.5,115C 254.174,114.5 246.841,114.334 239.5,114.5C 239.5,112.5 239.5,110.5 239.5,108.5C 239.5,102.833 239.5,97.1667 239.5,91.5C 247.124,90.6022 254.791,90.2689 262.5,90.5 Z"/></g>
<g><path style="opacity:1" fill="#eaebeb" d="M 622.5,74.5 C 623.74,77.024 624.907,79.6907 626,82.5C 631.845,85.6288 637.178,84.9621 642,80.5C 642.667,83.8333 642.667,87.1667 642,90.5C 641.692,91.3081 641.192,91.9747 640.5,92.5C 636.208,94.5157 633.875,93.1824 633.5,88.5C 630.813,88.3359 628.146,88.5026 625.5,89C 623.653,94.9797 625.653,99.3131 631.5,102C 635.5,102.667 639.5,102.667 643.5,102C 646.937,100.895 649.437,98.7284 651,95.5C 652.463,75.901 652.963,56.2344 652.5,36.5C 653.497,54.6591 653.83,72.9924 653.5,91.5C 655.833,91.5 658.167,91.5 660.5,91.5C 660.5,99.5 660.5,107.5 660.5,115.5C 653.109,115.201 645.776,115.535 638.5,116.5C 636.745,120.278 636.078,124.278 636.5,128.5C 627.833,128.5 619.167,128.5 610.5,128.5C 610.5,124.167 610.5,119.833 610.5,115.5C 602.813,115.46 595.146,115.793 587.5,116.5C 587.351,117.552 587.517,118.552 588,119.5C 588.333,119.167 588.667,118.833 589,118.5C 591.048,120.506 590.548,121.506 587.5,121.5C 587.802,124.059 587.468,126.393 586.5,128.5C 586.277,124.498 586.277,120.665 586.5,117C 586.164,115.97 585.497,115.47 584.5,115.5C 584.783,114.711 585.283,114.044 586,113.5C 586.279,106.467 586.779,99.4666 587.5,92.5C 590.551,91.3974 593.718,90.7307 597,90.5C 601.478,91.5142 605.978,91.5142 610.5,90.5C 610.421,89.0695 610.754,87.7362 611.5,86.5C 609.031,85.8319 606.698,85.1653 604.5,84.5C 607.833,84.5 611.167,84.5 614.5,84.5C 614.667,70.8293 614.5,57.1626 614,43.5C 611.435,37.4349 606.935,35.1015 600.5,36.5C 599.395,33.1026 598.895,29.7693 599,26.5C 598.085,25.6721 597.419,24.6721 597,23.5C 596.692,24.3081 596.192,24.9747 595.5,25.5C 594.646,24.4783 593.646,23.6449 592.5,23C 593.833,22.3333 593.833,21.6667 592.5,21C 593.108,20.1301 593.941,19.6301 595,19.5C 600.331,19.6432 605.831,19.6432 611.5,19.5C 611.161,24.9302 611.661,30.2636 613,35.5C 613.71,34.0267 614.876,33.3601 616.5,33.5C 616.682,35.5914 616.348,37.5914 615.5,39.5C 616.806,40.9122 617.64,42.5789 618,44.5C 618.29,42.9559 618.956,41.6226 620,40.5C 620.822,43.1168 621.322,45.7835 621.5,48.5C 620.325,48.281 619.325,48.6143 618.5,49.5C 619.489,50.4682 620.156,51.6349 620.5,53C 621.93,60.3113 621.763,67.478 620,74.5C 620.77,73.4019 621.603,73.4019 622.5,74.5 Z"/></g>
<g><path style="opacity:1" fill="#f3f3f3" d="M 636.5,45.5 C 638.903,45.393 640.736,46.393 642,48.5C 642.667,56.5 642.667,64.5 642,72.5C 639.333,75.1667 636.667,75.1667 634,72.5C 633.333,64.5 633.333,56.5 634,48.5C 634.698,47.3094 635.531,46.3094 636.5,45.5 Z"/></g>
<g><path style="opacity:1" fill="#f9faf9" d="M 264.5,91.5 C 272.586,91.1995 280.586,91.5328 288.5,92.5C 288.814,100.087 288.481,107.587 287.5,115C 279.863,114.738 272.197,114.571 264.5,114.5C 264.5,106.833 264.5,99.1667 264.5,91.5 Z"/></g>
<g><path style="opacity:1" fill="#f1f1f1" d="M 384.5,82.5 C 386.053,84.385 388.053,85.385 390.5,85.5C 390.096,86.7564 389.429,87.9231 388.5,89C 388.613,90.2798 389.28,91.1131 390.5,91.5C 397.615,91.4264 404.615,91.4264 411.5,91.5C 412.631,99.0873 412.798,106.754 412,114.5C 411.261,115.574 410.261,116.241 409,116.5C 402.581,116.052 396.414,115.719 390.5,115.5C 389.194,119.885 388.86,124.218 389.5,128.5C 379.582,127.906 369.582,127.906 359.5,128.5C 359.5,127.5 359.5,126.5 359.5,125.5C 356.635,125.945 354.135,125.278 352,123.5C 350.59,124.787 349.09,125.954 347.5,127C 348.549,127.492 349.549,127.326 350.5,126.5C 351.696,126.846 351.696,127.346 350.5,128C 346.848,128.499 343.182,128.665 339.5,128.5C 339.203,124.233 339.536,120.066 340.5,116C 347.97,115.657 355.637,115.49 363.5,115.5C 364.337,107.848 364.004,100.181 362.5,92.5C 369.817,91.5397 377.15,90.7063 384.5,90C 377.497,89.5034 377.163,88.8368 383.5,88C 381.945,86.3542 380.279,86.0209 378.5,87C 379.603,85.3196 379.27,83.8196 377.5,82.5C 378.274,81.2888 379.107,81.2888 380,82.5C 380.333,81.8333 380.667,81.1667 381,80.5C 381.816,81.8228 382.983,82.4894 384.5,82.5 Z"/></g>
<g><path style="opacity:1" fill="#f3f3f3" d="M 604.5,84.5 C 606.698,85.1653 609.031,85.8319 611.5,86.5C 610.754,87.7362 610.421,89.0695 610.5,90.5C 605.978,91.5142 601.478,91.5142 597,90.5C 593.718,90.7307 590.551,91.3974 587.5,92.5C 586.779,99.4666 586.279,106.467 586,113.5C 585.283,114.044 584.783,114.711 584.5,115.5C 577.476,114.347 570.643,114.347 564,115.5C 563.308,114.975 562.808,114.308 562.5,113.5C 563.401,107.339 563.401,101.339 562.5,95.5C 563.04,94.2519 563.707,93.0852 564.5,92C 571.826,91.5003 579.159,91.3337 586.5,91.5C 586.261,89.5328 586.594,87.6995 587.5,86C 590.036,85.8138 592.369,85.3138 594.5,84.5C 594.333,72.4954 594.5,60.4954 595,48.5C 598.523,44.2986 601.523,44.6319 604,49.5C 604.5,61.1619 604.667,72.8286 604.5,84.5 Z"/></g>
<g><path style="opacity:1" fill="#d3e6ef" d="M 114.5,91.5 C 109.444,94.2227 105.777,98.2227 103.5,103.5C 100.866,110.393 100.866,117.393 103.5,124.5C 102.25,124.423 101.417,123.756 101,122.5C 100.333,115.167 100.333,107.833 101,100.5C 102.073,98.4534 103.239,96.4534 104.5,94.5C 101.812,93.8503 99.3124,93.8503 97,94.5C 95,96.5 93,98.5 91,100.5C 90.6667,100.167 90.3333,99.8333 90,99.5C 88.871,101.141 87.371,102.141 85.5,102.5C 93.8454,91.6614 104.845,86.828 118.5,88C 116.907,88.9487 115.574,90.1154 114.5,91.5 Z"/></g>
<g><path style="opacity:1" fill="#eaebeb" d="M 584.5,39.5 C 584.5,54.5 584.5,69.5 584.5,84.5C 587.833,84.5 591.167,84.5 594.5,84.5C 592.369,85.3138 590.036,85.8138 587.5,86C 586.594,87.6995 586.261,89.5328 586.5,91.5C 579.159,91.3337 571.826,91.5003 564.5,92C 563.707,93.0852 563.04,94.2519 562.5,95.5C 563.401,101.339 563.401,107.339 562.5,113.5C 562.808,114.308 563.308,114.975 564,115.5C 570.643,114.347 577.476,114.347 584.5,115.5C 585.497,115.47 586.164,115.97 586.5,117C 586.277,120.665 586.277,124.498 586.5,128.5C 586.5,128.833 586.5,129.167 586.5,129.5C 578.5,129.5 570.5,129.5 562.5,129.5C 562.611,128.883 562.944,128.383 563.5,128C 562.308,126.088 561.308,124.088 560.5,122C 556.247,119.343 551.914,117.676 547.5,117C 550.541,116.424 553.208,115.258 555.5,113.5C 554.959,111.465 554.292,109.465 553.5,107.5C 552.719,108.729 552.219,110.062 552,111.5C 552.189,107.722 550.689,104.889 547.5,103C 548.167,102.667 548.833,102.333 549.5,102C 549.272,101.601 548.938,101.435 548.5,101.5C 554.962,95.6977 557.296,88.3644 555.5,79.5C 556.556,83.5099 557.056,87.5099 557,91.5C 557.833,90 559,88.8333 560.5,88C 559.167,86.1598 559.334,85.6598 561,86.5C 561.308,85.6919 561.808,85.0253 562.5,84.5C 563.167,70.0057 563.833,55.6723 564.5,41.5C 564.5,55.8333 564.5,70.1667 564.5,84.5C 568.167,84.5 571.833,84.5 575.5,84.5C 575.5,78.5 575.5,72.5 575.5,66.5C 578.348,65.343 580.848,65.6763 583,67.5C 583.17,57.991 583.67,48.6577 584.5,39.5 Z"/></g>
<g><path style="opacity:1" fill="#e9e9e9" d="M 187.5,47.5 C 188.486,51.97 188.819,56.6367 188.5,61.5C 187.679,64.6414 187.179,67.9748 187,71.5C 186.667,71.1667 186.333,70.8333 186,70.5C 185.355,71.646 184.522,72.646 183.5,73.5C 185.345,75.5364 185.845,77.8697 185,80.5C 184.346,79.3044 183.846,79.3044 183.5,80.5C 184.154,82.1151 184.654,83.7818 185,85.5C 185.914,84.3463 186.747,84.513 187.5,86C 183.701,87.5529 183.701,88.8862 187.5,90C 180.419,90.7596 173.419,91.9262 166.5,93.5C 165.114,100.414 164.447,107.414 164.5,114.5C 157.07,114.302 149.736,114.969 142.5,116.5C 141.794,120.947 140.461,124.947 138.5,128.5C 131.673,128.876 125.006,128.043 118.5,126C 117.944,125.617 117.611,125.117 117.5,124.5C 117.489,122.983 116.823,121.816 115.5,121C 116.38,119.644 116.714,118.144 116.5,116.5C 124.146,115.793 131.813,115.46 139.5,115.5C 139.334,109.491 139.501,103.491 140,97.5C 140.304,95.5595 141.137,93.8928 142.5,92.5C 150.132,91.422 157.632,90.7553 165,90.5C 165.658,88.892 165.158,87.7253 163.5,87C 164.167,86.6667 164.833,86.3333 165.5,86C 161.975,85.8213 158.641,85.3213 155.5,84.5C 158.833,84.5 162.167,84.5 165.5,84.5C 166.167,73.1667 166.833,61.8333 167.5,50.5C 169.932,57.7132 172.099,65.0466 174,72.5C 176.041,73.4231 178.208,73.7564 180.5,73.5C 182.833,64.834 185.166,56.1674 187.5,47.5 Z"/></g>
<g><path style="opacity:1" fill="#1d5487" d="M 49.5,82.5 C 47.6077,85.959 45.9411,89.6257 44.5,93.5C 42.1184,95.2588 39.9517,97.2588 38,99.5C 36.9136,105.619 38.4136,106.619 42.5,102.5C 43.4287,101.311 43.762,99.9778 43.5,98.5C 44.5,98.5 45.5,98.5 46.5,98.5C 46.1966,95.4124 47.5299,93.7458 50.5,93.5C 48.0272,87.7397 49.6938,85.7397 55.5,87.5C 50.8333,94.1667 46.1667,100.833 41.5,107.5C 39.4776,109.531 37.8109,111.865 36.5,114.5C 34.5,116.5 32.5,118.5 30.5,120.5C 30.3433,119.127 30.51,117.793 31,116.5C 34.8165,114.067 36.8165,110.734 37,106.5C 35.9916,106.982 34.825,107.148 33.5,107C 30.6042,111.944 26.9375,116.11 22.5,119.5C 21.6346,122.3 20.1346,124.633 18,126.5C 17.5065,128.134 17.3398,129.801 17.5,131.5C 16.1667,131.5 14.8333,131.5 13.5,131.5C 11.8902,136.199 13.2235,137.699 17.5,136C 20.5786,130.75 24.2453,125.917 28.5,121.5C 29.1067,121.624 29.44,121.957 29.5,122.5C 26.0977,128.076 22.0977,133.243 17.5,138C 12.5023,139.33 10.3357,137.496 11,132.5C 14.0887,128.646 16.922,124.646 19.5,120.5C 29.5,107.833 39.5,95.1667 49.5,82.5 Z"/></g>
<g><path style="opacity:1" fill="#eaeaeb" d="M 477.5,39.5 C 478.331,54.3277 478.831,69.3277 479,84.5C 480.299,84.9662 481.799,84.9662 483.5,84.5C 483.337,82.1432 483.503,79.8098 484,77.5C 484.483,78.448 484.649,79.448 484.5,80.5C 485.5,80.5 486.5,80.5 487.5,80.5C 493.069,85.3593 498.903,85.6926 505,81.5C 505.667,84.8333 505.667,88.1667 505,91.5C 501.249,94.5839 498.416,93.9172 496.5,89.5C 493.572,88.5159 490.572,88.1826 487.5,88.5C 486.923,93.6091 488.59,97.7758 492.5,101C 504.376,105.455 512.376,101.955 516.5,90.5C 517.91,91.8284 519.076,91.4951 520,89.5C 520.333,90.5 520.667,91.5 521,92.5C 521.283,89.2577 522.117,88.9244 523.5,91.5C 524.518,90.8075 525.518,90.1408 526.5,89.5C 527.103,99.4848 532.436,103.818 542.5,102.5C 540.735,103.461 538.735,103.795 536.5,103.5C 536.793,107.437 536.46,111.27 535.5,115C 527.841,115.5 520.174,115.666 512.5,115.5C 512.98,118.685 512.314,121.519 510.5,124C 505.506,123.238 500.339,122.738 495,122.5C 492.735,123.916 491.569,125.916 491.5,128.5C 489.585,128.216 487.919,128.549 486.5,129.5C 479.833,129.5 473.167,129.5 466.5,129.5C 465.329,128.655 463.995,127.989 462.5,127.5C 462.713,123.484 462.046,119.65 460.5,116C 452.775,116.023 445.109,115.856 437.5,115.5C 437.65,107.333 437.65,99.3326 437.5,91.5C 444.796,91.7216 451.963,91.0549 459,89.5C 459.414,89.9574 459.914,90.2907 460.5,90.5C 461.736,88.9665 462.236,87.2998 462,85.5C 461.586,85.9574 461.086,86.2907 460.5,86.5C 456.365,85.8909 452.365,85.2243 448.5,84.5C 452.649,85.0803 456.316,84.4136 459.5,82.5C 460.212,83.7387 461.212,84.2387 462.5,84C 461.72,82.927 461.887,81.7604 463,80.5C 463.287,82.8907 463.787,85.2241 464.5,87.5C 465.631,88.6039 466.465,88.2705 467,86.5C 467.9,87.7702 469.066,88.7702 470.5,89.5C 467.742,89.6931 465.075,90.8597 462.5,93C 462.873,99.8054 463.207,106.639 463.5,113.5C 471.145,114.665 478.812,114.831 486.5,114C 486.043,113.586 485.709,113.086 485.5,112.5C 486.106,110.291 486.773,108.124 487.5,106C 486.019,103.422 484.686,100.756 483.5,98C 485.141,96.3542 484.807,95.3542 482.5,95C 483.833,93.1598 483.666,92.6598 482,93.5C 478.535,92.1052 475.035,90.7718 471.5,89.5C 473.624,88.542 475.624,87.3754 477.5,86C 473.975,85.8213 470.641,85.3213 467.5,84.5C 470.833,84.5 474.167,84.5 477.5,84.5C 477.5,69.5 477.5,54.5 477.5,39.5 Z"/></g>
<g><path style="opacity:1" fill="#095fab" d="M 114.5,91.5 C 115.978,91.238 117.311,91.5713 118.5,92.5C 116.862,93.7046 116.529,95.0379 117.5,96.5C 115.439,99.2704 112.939,101.604 110,103.5C 108.566,105.22 107.733,107.22 107.5,109.5C 107.892,112.849 108.392,116.183 109,119.5C 110.047,121.708 111.547,123.374 113.5,124.5C 113.414,125.496 113.748,126.329 114.5,127C 120.423,131.18 127.09,132.68 134.5,131.5C 141.678,132.167 149.011,132.833 156.5,133.5C 159.055,135.312 161.722,136.645 164.5,137.5C 152.162,137.667 139.829,137.5 127.5,137C 127,136.5 126.5,136 126,135.5C 123.281,136.444 120.448,136.777 117.5,136.5C 116.952,133.916 115.285,132.916 112.5,133.5C 112.5,132.167 112.5,130.833 112.5,129.5C 110.857,129.52 109.524,128.853 108.5,127.5C 102.524,120.492 100.857,112.492 103.5,103.5C 105.777,98.2227 109.444,94.2227 114.5,91.5 Z"/></g>
<g><path style="opacity:1" fill="#f7f8f7" d="M 36.5,114.5 C 37.8109,111.865 39.4776,109.531 41.5,107.5C 42.3635,106.537 43.0302,106.537 43.5,107.5C 41.0126,110.091 41.0126,112.758 43.5,115.5C 49.3398,115.744 55.6732,115.744 62.5,115.5C 59.8436,123.723 59.0103,132.057 60,140.5C 54.7438,139.97 49.4105,139.97 44,140.5C 41.6829,136.912 41.1829,133.079 42.5,129C 42.2231,125.023 41.2231,121.356 39.5,118C 39.8333,117.667 40.1667,117.333 40.5,117C 38.563,116.878 37.2297,116.045 36.5,114.5 Z"/></g>
<g><path style="opacity:1" fill="#eeeeed" d="M 19.5,120.5 C 17.5,120.833 15.5,121.167 13.5,121.5C 13.6567,122.873 13.49,124.207 13,125.5C 9.10978,129.053 7.77645,133.387 9,138.5C 11.3112,139.487 13.6446,140.487 16,141.5C 17.8951,141.385 19.5618,140.718 21,139.5C 27.4191,140.313 33.9191,140.813 40.5,141C 41.4667,145.401 41.8,149.901 41.5,154.5C 27.5,154.5 13.5,154.5 -0.5,154.5C -0.5,141.167 -0.5,127.833 -0.5,114.5C 5.43813,114.397 11.1048,114.73 16.5,115.5C 16.358,113.306 16.6914,110.973 17.5,108.5C 18.4584,108.953 19.2917,109.619 20,110.5C 22.3028,108.662 22.9694,106.328 22,103.5C 19.0899,102.55 17.9232,100.55 18.5,97.5C 21.7301,97.561 23.5635,99.2277 24,102.5C 24.3333,102.167 24.6667,101.833 25,101.5C 25.8996,102.77 27.0663,103.77 28.5,104.5C 26.4945,108.513 23.9945,112.18 21,115.5C 19.9914,117.025 19.4914,118.692 19.5,120.5 Z"/></g>
<g><path style="opacity:1" fill="#f4f5f5" d="M 548.5,101.5 C 548.938,101.435 549.272,101.601 549.5,102C 548.833,102.333 548.167,102.667 547.5,103C 550.689,104.889 552.189,107.722 552,111.5C 552.219,110.062 552.719,108.729 553.5,107.5C 554.292,109.465 554.959,111.465 555.5,113.5C 553.208,115.258 550.541,116.424 547.5,117C 551.914,117.676 556.247,119.343 560.5,122C 561.308,124.088 562.308,126.088 563.5,128C 562.944,128.383 562.611,128.883 562.5,129.5C 537.167,129.5 511.833,129.5 486.5,129.5C 487.919,128.549 489.585,128.216 491.5,128.5C 491.569,125.916 492.735,123.916 495,122.5C 500.339,122.738 505.506,123.238 510.5,124C 512.314,121.519 512.98,118.685 512.5,115.5C 520.174,115.666 527.841,115.5 535.5,115C 536.46,111.27 536.793,107.437 536.5,103.5C 538.735,103.795 540.735,103.461 542.5,102.5C 544.5,102.167 546.5,101.833 548.5,101.5 Z"/></g>
<g><path style="opacity:1" fill="#0a529b" d="M 30.5,120.5 C 30.6716,121.492 30.3382,122.158 29.5,122.5C 29.44,121.957 29.1067,121.624 28.5,121.5C 24.2453,125.917 20.5786,130.75 17.5,136C 13.2235,137.699 11.8902,136.199 13.5,131.5C 14.8333,131.5 16.1667,131.5 17.5,131.5C 17.3398,129.801 17.5065,128.134 18,126.5C 20.1346,124.633 21.6346,122.3 22.5,119.5C 26.9375,116.11 30.6042,111.944 33.5,107C 34.825,107.148 35.9916,106.982 37,106.5C 36.8165,110.734 34.8165,114.067 31,116.5C 30.51,117.793 30.3433,119.127 30.5,120.5 Z"/></g>
<g><path style="opacity:1" fill="#236294" d="M 103.5,103.5 C 100.857,112.492 102.524,120.492 108.5,127.5C 109.524,128.853 110.857,129.52 112.5,129.5C 112.5,130.833 112.5,132.167 112.5,133.5C 115.285,132.916 116.952,133.916 117.5,136.5C 111.279,134.277 106.613,130.277 103.5,124.5C 100.866,117.393 100.866,110.393 103.5,103.5 Z"/></g>
<g><path style="opacity:1" fill="#2a6595" d="M 66.5,115.5 C 65.1627,122.442 64.6627,129.442 65,136.5C 66.3561,137.38 67.8561,137.714 69.5,137.5C 64.3239,141.013 61.6573,139.513 61.5,133C 62.2357,126.77 63.9024,120.937 66.5,115.5 Z"/></g>
<g><path style="opacity:1" fill="#b4daf6" d="M 113.5,124.5 C 113.5,124.167 113.5,123.833 113.5,123.5C 114.833,123.833 116.167,124.167 117.5,124.5C 117.611,125.117 117.944,125.617 118.5,126C 125.006,128.043 131.673,128.876 138.5,128.5C 247.665,129.499 356.999,129.833 466.5,129.5C 473.167,129.5 479.833,129.5 486.5,129.5C 511.833,129.5 537.167,129.5 562.5,129.5C 570.5,129.5 578.5,129.5 586.5,129.5C 610.191,128.843 633.524,129.51 656.5,131.5C 549.541,130.504 442.541,130.171 335.5,130.5C 330.167,130.5 324.833,130.5 319.5,130.5C 254.832,130.667 190.166,130.5 125.5,130C 121.14,128.987 117.14,127.154 113.5,124.5 Z"/></g>
<g><path style="opacity:1" fill="#1c5689" d="M 113.5,124.5 C 117.14,127.154 121.14,128.987 125.5,130C 190.166,130.5 254.832,130.667 319.5,130.5C 319.5,130.833 319.5,131.167 319.5,131.5C 257.833,131.5 196.167,131.5 134.5,131.5C 127.09,132.68 120.423,131.18 114.5,127C 113.748,126.329 113.414,125.496 113.5,124.5 Z"/></g>
<g><path style="opacity:1" fill="#1d5587" d="M 335.5,130.5 C 442.541,130.171 549.541,130.504 656.5,131.5C 657.461,133.265 657.795,135.265 657.5,137.5C 656.833,137.833 656.167,138.167 655.5,138.5C 655.768,136.901 655.434,135.568 654.5,134.5C 654.586,133.504 654.252,132.671 653.5,132C 547.333,131.833 441.333,131.333 335.5,130.5 Z"/></g>
<g><path style="opacity:1" fill="#0757a4" d="M 134.5,131.5 C 196.167,131.5 257.833,131.5 319.5,131.5C 325.395,131.99 331.229,132.657 337,133.5C 341.333,133.167 345.667,132.833 350,132.5C 352.139,134.508 354.472,134.508 357,132.5C 358.658,132.675 359.991,133.342 361,134.5C 362,134.167 363,133.833 364,133.5C 364.5,134 365,134.5 365.5,135C 364.142,135.934 362.808,136.768 361.5,137.5C 295.833,137.5 230.167,137.5 164.5,137.5C 161.722,136.645 159.055,135.312 156.5,133.5C 149.011,132.833 141.678,132.167 134.5,131.5 Z"/></g>
<g><path style="opacity:1" fill="#0756a2" d="M 319.5,131.5 C 319.5,131.167 319.5,130.833 319.5,130.5C 324.833,130.5 330.167,130.5 335.5,130.5C 441.333,131.333 547.333,131.833 653.5,132C 654.252,132.671 654.586,133.504 654.5,134.5C 654.5,135.5 654.5,136.5 654.5,137.5C 556.833,137.5 459.167,137.5 361.5,137.5C 362.808,136.768 364.142,135.934 365.5,135C 365,134.5 364.5,134 364,133.5C 363,133.833 362,134.167 361,134.5C 359.991,133.342 358.658,132.675 357,132.5C 354.472,134.508 352.139,134.508 350,132.5C 345.667,132.833 341.333,133.167 337,133.5C 331.229,132.657 325.395,131.99 319.5,131.5 Z"/></g>
<g><path style="opacity:1" fill="#114e88" d="M 654.5,134.5 C 655.434,135.568 655.768,136.901 655.5,138.5C 655.167,138.5 654.833,138.5 654.5,138.5C 475.472,138.83 296.472,138.496 117.5,137.5C 117.5,137.167 117.5,136.833 117.5,136.5C 120.448,136.777 123.281,136.444 126,135.5C 126.5,136 127,136.5 127.5,137C 139.829,137.5 152.162,137.667 164.5,137.5C 230.167,137.5 295.833,137.5 361.5,137.5C 459.167,137.5 556.833,137.5 654.5,137.5C 654.5,136.5 654.5,135.5 654.5,134.5 Z"/></g>
<g><path style="opacity:1" fill="#c1ddea" d="M 117.5,137.5 C 296.472,138.496 475.472,138.83 654.5,138.5C 564.335,139.499 474.002,139.833 383.5,139.5C 374.764,139.327 366.097,139.993 357.5,141.5C 343.517,140.948 329.517,140.948 315.5,141.5C 290.175,140.692 264.842,140.359 239.5,140.5C 223.897,140.138 208.397,140.805 193,142.5C 192.5,142 192,141.5 191.5,141C 183.507,140.5 175.507,140.334 167.5,140.5C 159.111,140.197 150.778,140.53 142.5,141.5C 134.549,140.697 126.549,140.197 118.5,140C 117.748,139.329 117.414,138.496 117.5,137.5 Z"/></g>
<g><path style="opacity:1" fill="#e7f9f8" d="M 657.5,137.5 C 657.5,138.833 657.5,140.167 657.5,141.5C 642.039,140.191 626.706,140.191 611.5,141.5C 586.555,140.214 561.555,140.214 536.5,141.5C 528.367,141.1 520.034,141.1 511.5,141.5C 470.327,140.235 428.993,140.235 387.5,141.5C 385.517,141.843 384.183,141.176 383.5,139.5C 474.002,139.833 564.335,139.499 654.5,138.5C 654.833,138.5 655.167,138.5 655.5,138.5C 656.167,138.167 656.833,137.833 657.5,137.5 Z"/></g>
<g><path style="opacity:1" fill="#f0f1f0" d="M 103.5,124.5 C 106.613,130.277 111.279,134.277 117.5,136.5C 117.5,136.833 117.5,137.167 117.5,137.5C 117.414,138.496 117.748,139.329 118.5,140C 126.549,140.197 134.549,140.697 142.5,141.5C 150.778,140.53 159.111,140.197 167.5,140.5C 166.737,141.268 165.737,141.768 164.5,142C 165.167,142.333 165.833,142.667 166.5,143C 165.056,144.126 164.39,145.626 164.5,147.5C 164.997,149.818 165.33,152.152 165.5,154.5C 132.5,154.5 99.5,154.5 66.5,154.5C 66.7935,150.563 66.4601,146.73 65.5,143C 67.365,140.369 69.5316,138.869 72,138.5C 72.7563,132.778 73.7563,127.111 75,121.5C 76.4264,118.309 78.093,115.309 80,112.5C 84.1492,110.542 85.9825,107.208 85.5,102.5C 87.371,102.141 88.871,101.141 90,99.5C 90.3333,99.8333 90.6667,100.167 91,100.5C 93,98.5 95,96.5 97,94.5C 99.3124,93.8503 101.812,93.8503 104.5,94.5C 103.239,96.4534 102.073,98.4534 101,100.5C 100.333,107.833 100.333,115.167 101,122.5C 101.417,123.756 102.25,124.423 103.5,124.5 Z"/></g>
<g><path style="opacity:1" fill="#f9f9f9" d="M 536.5,141.5 C 537.373,145.768 537.706,150.102 537.5,154.5C 529.167,154.5 520.833,154.5 512.5,154.5C 512.706,150.102 512.373,145.768 511.5,141.5C 520.034,141.1 528.367,141.1 536.5,141.5 Z"/></g>
<g><path style="opacity:1" fill="#f2f2f2" d="M 167.5,140.5 C 175.507,140.334 183.507,140.5 191.5,141C 192,141.5 192.5,142 193,142.5C 208.397,140.805 223.897,140.138 239.5,140.5C 240.021,145.313 240.021,149.979 239.5,154.5C 214.833,154.5 190.167,154.5 165.5,154.5C 165.33,152.152 164.997,149.818 164.5,147.5C 164.39,145.626 165.056,144.126 166.5,143C 165.833,142.667 165.167,142.333 164.5,142C 165.737,141.768 166.737,141.268 167.5,140.5 Z"/></g>
<g><path style="opacity:1" fill="#eeeeef" d="M 239.5,140.5 C 264.842,140.359 290.175,140.692 315.5,141.5C 314.627,145.768 314.294,150.102 314.5,154.5C 289.5,154.5 264.5,154.5 239.5,154.5C 240.021,149.979 240.021,145.313 239.5,140.5 Z"/></g>
<g><path style="opacity:1" fill="#f2f3f2" d="M 383.5,139.5 C 384.183,141.176 385.517,141.843 387.5,141.5C 387.5,145.833 387.5,150.167 387.5,154.5C 363.167,154.5 338.833,154.5 314.5,154.5C 314.294,150.102 314.627,145.768 315.5,141.5C 329.517,140.948 343.517,140.948 357.5,141.5C 366.097,139.993 374.764,139.327 383.5,139.5 Z"/></g>
<g><path style="opacity:1" fill="#ededee" d="M 611.5,141.5 C 611.5,145.833 611.5,150.167 611.5,154.5C 586.833,154.5 562.167,154.5 537.5,154.5C 537.706,150.102 537.373,145.768 536.5,141.5C 561.555,140.214 586.555,140.214 611.5,141.5 Z"/></g>
<g><path style="opacity:1" fill="#f2f2f2" d="M 680.5,140.5 C 680.5,145.167 680.5,149.833 680.5,154.5C 657.5,154.5 634.5,154.5 611.5,154.5C 611.5,150.167 611.5,145.833 611.5,141.5C 626.706,140.191 642.039,140.191 657.5,141.5C 658.482,142.141 659.482,142.807 660.5,143.5C 661.167,142.5 661.833,141.5 662.5,140.5C 664.164,141.223 665.831,140.89 667.5,139.5C 671.765,140.439 676.098,140.772 680.5,140.5 Z"/></g>
<g><path style="opacity:1" fill="#edeeee" d="M 511.5,141.5 C 512.373,145.768 512.706,150.102 512.5,154.5C 470.833,154.5 429.167,154.5 387.5,154.5C 387.5,150.167 387.5,145.833 387.5,141.5C 428.993,140.235 470.327,140.235 511.5,141.5 Z"/></g>
</svg>
